<svg width="64" height="76" viewBox="0 0 64 76" fill="none" xmlns="http://www.w3.org/2000/svg">
<path d="M50.3558 38.6006C40.7836 40.0885 33.8538 33.1522 33.4775 25.5645C33.2496 20.9891 34.845 17.1189 38.2959 14.1066C41.7081 11.1266 45.7245 10.1031 50.1774 10.8428C50.5859 9.26676 50.0441 8.47982 48.5519 8.47337C44.9053 8.46262 41.2566 8.46907 37.4681 8.46907C37.4681 9.1184 37.4961 9.67958 37.4638 10.2386C37.3735 11.7695 36.3651 12.7908 34.845 12.7972C29.2203 12.8166 23.5935 12.8187 17.9688 12.7972C16.5046 12.7908 15.4489 11.7759 15.4016 10.3074C15.3436 8.44542 15.3221 6.57913 15.4081 4.71929C15.5199 2.22947 17.4636 0.339531 19.9555 0.31158C24.2536 0.264278 28.5538 0.266428 32.854 0.30728C35.3546 0.330931 37.2467 2.17572 37.4488 4.66984C37.4853 5.12781 37.4531 5.59223 37.4531 6.17061C37.9196 6.19426 38.2959 6.22866 38.6722 6.22866C41.9683 6.23296 45.2644 6.22221 48.5605 6.23511C51.1019 6.24586 52.5812 7.69503 52.5274 10.2408C52.5059 11.2083 52.7618 11.7243 53.7014 12.0683C54.527 12.3694 55.2559 12.9327 56.2966 13.5347C56.6728 13.0896 57.0642 12.5306 57.5479 12.0726C59.1111 10.5955 61.3192 10.6127 62.7447 12.0726C64.1487 13.5089 64.181 15.6956 62.7039 17.1899C58.294 21.6449 53.8627 26.0763 49.4033 30.4818C47.9198 31.9482 45.7912 31.9202 44.2883 30.4603C42.1833 28.4134 40.102 26.3386 38.0594 24.2293C36.6081 22.7307 36.6489 20.5204 38.0616 19.1099C39.472 17.7016 41.6716 17.6565 43.1852 19.0906C44.4044 20.2473 45.5353 21.4965 46.6319 22.6296C49.2163 20.0345 51.7018 17.5361 54.2647 14.9602C52.8801 13.8744 51.1363 13.2165 49.255 12.9649C42.0715 12.0038 35.8684 17.2823 35.6319 24.5153C35.4513 30.0712 39.7064 35.3411 45.2257 36.3946C50.9643 37.489 56.7975 34.2488 58.6552 28.8692C59.0358 27.7641 59.2336 26.5837 59.4078 25.4226C59.5239 24.6529 59.7152 24.0659 60.614 24.1218C61.5493 24.182 61.6482 24.8615 61.5901 25.5989C61.1687 31.0215 58.466 34.9497 53.6562 37.3815C52.7489 37.8395 52.5339 38.3168 52.536 39.2392C52.564 50.0607 52.5554 60.88 52.5532 71.7014C52.5532 74.5955 51.1729 75.9737 48.2745 75.9737C33.6925 75.9737 19.1084 75.9737 4.5264 75.9737C1.68182 75.9737 0.320801 74.6062 0.320801 71.753C0.320801 51.3335 0.320801 30.9118 0.320801 10.488C0.320801 7.57033 1.65816 6.23941 4.5909 6.23511C6.70446 6.23296 8.81801 6.23941 10.9337 6.23296C11.6841 6.23081 12.3463 6.37272 12.37 7.28436C12.3958 8.22826 11.7572 8.47337 10.9402 8.47122C8.7535 8.46477 6.569 8.46262 4.38234 8.47122C2.98478 8.47552 2.48165 8.95499 2.48165 10.3246C2.47735 30.8559 2.4752 51.3851 2.48165 71.9165C2.48165 73.2904 3.07723 73.7956 4.62316 73.7956C12.757 73.7978 20.8887 73.7956 29.0225 73.7956C35.3288 73.7956 41.635 73.7956 47.9413 73.7956C49.9645 73.7956 50.3537 73.4172 50.3537 71.4391C50.3537 60.8692 50.3537 50.2993 50.3537 39.7294V38.5985L50.3558 38.6006ZM26.3327 10.5891C28.9817 10.5891 31.6327 10.574 34.2817 10.5998C34.9525 10.6063 35.2707 10.4214 35.2535 9.69678C35.2191 8.15731 35.2772 6.61568 35.2299 5.07836C35.1783 3.44213 34.2172 2.49608 32.5702 2.48533C28.4893 2.45953 24.4063 2.45953 20.3254 2.48533C18.6031 2.49608 17.6098 3.51523 17.5775 5.24607C17.5517 6.67803 17.6033 8.11215 17.5582 9.54197C17.5345 10.3246 17.7882 10.617 18.601 10.6041C21.1789 10.5633 23.7569 10.5891 26.3349 10.5891H26.3327ZM61.7406 14.5904C61.4031 14.1432 61.1881 13.5863 60.8096 13.4315C60.3818 13.2573 59.7948 13.3842 59.3024 13.496C59.0638 13.5498 58.8831 13.8658 58.681 14.0679C55.1613 17.5855 51.6459 21.1052 48.124 24.6206C47.021 25.7215 46.6985 25.7172 45.5783 24.5991C44.3614 23.3865 43.1551 22.1609 41.9339 20.9526C41.1469 20.1742 40.2891 20.0753 39.6698 20.6666C39.0291 21.2772 39.0829 22.1351 39.8612 22.9221C41.7748 24.855 43.697 26.7815 45.6364 28.6886C46.5609 29.5981 47.1844 29.5938 48.1219 28.6585C52.4092 24.3906 56.6857 20.114 60.9515 15.8246C61.2612 15.515 61.4375 15.0742 61.7428 14.5883L61.7406 14.5904Z" fill="#55489D"/>
<path d="M5.25874 31.607C5.29099 29.2118 7.34219 27.1864 9.7417 27.1821C12.1864 27.1778 14.2419 29.2505 14.2268 31.7081C14.2139 34.1807 12.1584 36.2018 9.6944 36.1674C7.22178 36.133 5.22434 34.0818 5.25874 31.607ZM11.9649 31.6802C11.9628 30.4159 10.9759 29.4161 9.73955 29.4204C8.51829 29.4247 7.4927 30.461 7.4927 31.6866C7.4927 32.9079 8.5355 33.9571 9.74815 33.9571C10.978 33.9571 11.9671 32.9401 11.9649 31.6802Z" fill="#55489D"/>
<path d="M5.25841 58.7522C5.27561 56.2968 7.36766 54.2671 9.82093 54.3209C12.2656 54.3746 14.2265 56.3678 14.2265 58.7995C14.2265 61.2614 12.171 63.3147 9.72202 63.2997C7.27521 63.2825 5.24121 61.2119 5.25841 58.7544V58.7522ZM11.9646 58.8511C11.9882 57.5718 11.0486 56.5806 9.78868 56.557C8.55022 56.5333 7.51172 57.5267 7.49022 58.7587C7.46872 59.9821 8.47711 61.0399 9.69407 61.07C10.9196 61.1001 11.9409 60.1025 11.9624 58.849L11.9646 58.8511Z" fill="#55489D"/>
<path d="M9.71137 49.7692C7.22155 49.7585 5.23486 47.746 5.25851 45.2583C5.28216 42.8459 7.29681 40.8506 9.72427 40.8355C12.1926 40.8205 14.2309 42.8523 14.2287 45.3228C14.2244 47.8105 12.2248 49.7778 9.71352 49.7671L9.71137 49.7692ZM9.72642 43.0759C8.48151 43.0867 7.48172 44.0951 7.49032 45.3357C7.49892 46.5613 8.53957 47.5912 9.75867 47.5826C10.9928 47.574 11.9754 46.5613 11.9668 45.3034C11.9604 44.0263 10.9928 43.0673 9.72642 43.0781V43.0759Z" fill="#55489D"/>
<path d="M26.1197 41.6321C28.874 41.6321 31.6304 41.6321 34.3847 41.6321C34.6706 41.6321 35.0319 41.5331 35.2275 41.6708C35.621 41.946 36.1822 42.3416 36.1951 42.7028C36.208 43.0683 35.6876 43.5198 35.3071 43.8058C35.0942 43.9649 34.6857 43.8811 34.3653 43.8811C28.8546 43.8832 23.3439 43.8832 17.8332 43.8811C17.6182 43.8811 17.4032 43.8875 17.1903 43.8746C16.4593 43.8338 15.8981 43.5155 15.9088 42.7286C15.9196 41.9503 16.4507 41.6278 17.2118 41.6299C20.1811 41.6364 23.1525 41.6321 26.1218 41.6299L26.1197 41.6321Z" fill="#55489D"/>
<path d="M26.0685 62.4752C23.2045 62.4752 20.3428 62.4623 17.4788 62.4838C16.6338 62.4902 15.8899 62.3268 15.9157 61.3313C15.9393 60.4175 16.651 60.2498 17.4552 60.252C23.2174 60.2649 28.9797 60.2627 34.742 60.2563C35.5375 60.2563 36.2363 60.4218 36.2492 61.3657C36.2621 62.3182 35.5676 62.4859 34.7656 62.4838C31.8673 62.4709 28.9668 62.4795 26.0685 62.4795V62.4752Z" fill="#55489D"/>
<path d="M23.7522 30.3794C21.6408 30.3794 19.5315 30.3643 17.4201 30.388C16.6074 30.3966 15.9194 30.2074 15.9151 29.2828C15.9108 28.3454 16.6267 28.1712 17.4201 28.1734C21.6408 28.1798 25.8614 28.1798 30.0821 28.1734C30.8755 28.1734 31.6001 28.354 31.5936 29.2828C31.5893 30.2009 30.8884 30.3944 30.0799 30.3858C27.9707 30.3665 25.8593 30.3794 23.7479 30.3794H23.7522Z" fill="#55489D"/>
<path d="M23.7054 35.542C21.594 35.542 19.4826 35.5269 17.3712 35.5484C16.5326 35.557 15.8941 35.2861 15.9156 34.3852C15.9349 33.5338 16.5971 33.3123 17.3626 33.3145C21.6219 33.3209 25.8813 33.3209 30.1385 33.3145C30.9469 33.3145 31.6328 33.5553 31.5963 34.4798C31.564 35.3184 30.9233 35.5527 30.1449 35.5463C27.997 35.5291 25.8512 35.5398 23.7032 35.5398L23.7054 35.542Z" fill="#55489D"/>
<path d="M23.7352 57.3088C21.5873 57.3088 19.4415 57.2959 17.2935 57.3153C16.4915 57.3239 15.9003 57.0487 15.9153 56.1994C15.9304 55.3544 16.5453 55.1028 17.3322 55.105C21.626 55.1179 25.9197 55.1136 30.2135 55.1071C31.0026 55.1071 31.6111 55.3953 31.5982 56.236C31.5853 57.0831 30.9617 57.3217 30.1748 57.3131C28.029 57.2916 25.881 57.3067 23.7331 57.3067L23.7352 57.3088Z" fill="#55489D"/>
<path d="M21.5785 46.7804C22.9696 46.7804 24.3629 46.7847 25.754 46.7804C26.5216 46.7782 27.1494 47.0276 27.1623 47.8855C27.1731 48.7542 26.5216 49.01 25.7712 49.0122C22.9524 49.0208 20.1336 49.0186 17.3149 49.0143C16.5602 49.0143 15.9087 48.7649 15.9087 47.9006C15.9087 47.0534 16.515 46.7739 17.2977 46.7804C18.7253 46.7911 20.153 46.7825 21.5807 46.7825L21.5785 46.7804Z" fill="#55489D"/>
<path d="M11.1275 16.6686C12.2713 16.6686 13.413 16.6686 14.5569 16.6686C15.3352 16.6686 15.9566 16.9954 15.9609 17.8082C15.9652 18.6231 15.3503 18.9542 14.5676 18.9542C12.2821 18.9542 9.99436 18.9563 7.7088 18.9542C6.94336 18.9542 6.32198 18.6811 6.31983 17.8211C6.31768 16.9675 6.93046 16.6772 7.69805 16.6729C8.8419 16.6643 9.98361 16.6708 11.1275 16.6708V16.6686Z" fill="#55489D"/>
</svg>
