<svg width="78" height="79" viewBox="0 0 78 79" fill="none" xmlns="http://www.w3.org/2000/svg">
<path d="M67.8347 63.7197C71.3964 65.2824 72.2951 67.2228 71.3307 70.611C70.9248 72.0352 70.6127 73.4876 70.1881 74.9071C69.4466 77.3825 67.2176 78.7012 64.7093 78.077C57.6304 76.3149 50.5609 74.5153 43.496 72.6992C41.1192 72.0891 39.7442 69.6114 40.366 67.2111C40.7766 65.625 41.1943 64.0388 41.5814 62.4457C42.3158 59.433 44.2985 58.0768 47.4731 58.5578C47.9283 56.8144 48.3952 55.0523 48.8504 53.2902C49.2493 51.7416 49.6176 50.1837 50.0376 48.6398C50.4694 47.056 51.3187 45.7209 52.5623 44.6369C54.1226 43.276 55.7721 41.9973 57.1963 40.5026C58.0739 39.5805 58.7449 38.3816 59.2447 37.1966C59.7679 35.9507 59.9838 34.5734 60.3193 33.2501C61.0021 30.5612 62.3771 29.5499 65.2654 29.7306C65.0941 27.83 64.9322 25.9436 64.7492 24.0595C64.5686 22.1941 64.3339 20.3311 64.1767 18.4634C63.9914 16.2696 65.3475 14.4653 67.3983 14.0969C69.4466 13.7285 71.4739 15.0401 71.9666 17.2034C73.0717 22.0745 74.1229 26.9572 75.1576 31.8423C75.9178 35.4298 76.6006 39.0362 77.3515 42.6261C77.8677 45.0898 77.4336 47.3516 76.0821 49.4586C73.9516 52.7787 71.7672 56.066 69.7258 59.44C68.9375 60.7446 68.4752 62.2462 67.837 63.7197H67.8347ZM49.7373 59.1913C55.1222 60.5733 60.3874 61.9248 65.7793 63.3091C66.1054 60.1322 67.9543 57.7624 69.5405 55.2682C71.0281 52.9312 72.5133 50.5896 74.0314 48.2714C75.1459 46.5703 75.4274 44.7613 74.9934 42.788C74.5241 40.6552 74.144 38.5036 73.6888 36.3684C72.3866 30.2655 71.0726 24.165 69.7423 18.0669C69.4607 16.7764 68.7591 16.2485 67.7385 16.4409C66.8304 16.6098 66.3753 17.3818 66.4996 18.6277C66.8469 22.0862 67.2012 25.5423 67.5719 28.9985C67.8699 31.7719 68.5198 34.5195 67.4358 37.3046C66.8469 38.8203 66.6193 40.4745 66.1758 42.0512C65.9834 42.734 65.5423 43.276 64.7258 43.0602C63.9444 42.8537 63.7333 42.246 63.8881 41.4952C63.9351 41.2676 64.0148 41.0447 64.0735 40.8194C64.6389 38.6303 65.2208 36.4435 65.7605 34.2473C66.0303 33.1515 65.5939 32.3468 64.6859 32.1004C63.7778 31.854 63.0247 32.3585 62.722 33.4378C62.5319 34.1135 62.3255 34.7893 62.2105 35.4791C61.6286 38.9048 60.0518 41.6946 57.1823 43.743C56.171 44.4656 55.1855 45.2892 54.3901 46.2348C53.536 47.2531 52.8415 48.431 52.2291 49.6159C51.8631 50.3268 51.788 51.1879 51.5862 51.981C50.9785 54.3508 50.3708 56.7206 49.7373 59.1936V59.1913ZM65.6291 75.8363C66.9736 75.794 67.6728 75.2145 67.9614 74.1469C68.3884 72.5655 68.7896 70.977 69.2073 69.3932C69.6719 67.6287 69.0994 66.6151 67.3372 66.1435C66.0561 65.8009 64.7657 65.4865 63.4799 65.1557C58.0011 63.7502 52.5248 62.3354 47.0437 60.9417C45.2886 60.4959 44.3947 61.0238 43.9019 62.7882C43.4632 64.365 43.0455 65.9511 42.6772 67.5466C42.3088 69.1468 42.893 70.1112 44.5003 70.5218C50.8119 72.1314 57.1306 73.7152 63.4494 75.306C64.2424 75.5054 65.0378 75.6908 65.6291 75.8339V75.8363Z" fill="#55489D"/>
<path d="M9.68852 63.6727C9.12774 62.3095 8.71479 60.8336 7.95692 59.5595C6.18073 56.575 4.37405 53.5881 2.32803 50.7889C0.0356542 47.6518 -0.292834 44.3787 0.544811 40.6973C2.29284 33.0153 3.86958 25.2935 5.50733 17.5881C6.02118 15.169 7.87479 13.7472 10.1179 14.0803C12.3282 14.4088 13.6492 16.3492 13.384 18.8434C13.0203 22.2597 12.6707 25.6783 12.3164 29.0969C12.2977 29.2847 12.3141 29.4747 12.3141 29.6624C15.4371 29.6483 16.6525 30.6174 17.3587 33.6113C17.5652 34.4842 17.828 35.3453 17.9969 36.2251C18.3864 38.2782 19.4024 39.9089 21.073 41.1712C21.8801 41.7813 22.5512 42.579 23.3748 43.1609C26.1951 45.1577 27.6076 47.9264 28.2481 51.2582C28.7174 53.6984 29.4588 56.0846 30.0736 58.4779C33.6119 58.2081 35.1816 59.3366 36.0497 62.6966C36.4298 64.1701 36.8029 65.646 37.176 67.1195C37.8236 69.6817 36.4439 72.0656 33.9028 72.7132C26.9482 74.4847 19.9937 76.2468 13.0344 77.9901C10.2798 78.6799 8.13289 77.4293 7.35625 74.7099C6.99257 73.4358 6.71805 72.136 6.36844 70.8572C5.31962 67.0092 5.96956 65.4981 9.68852 63.6703V63.6727ZM27.807 59.2146C26.9623 55.9086 26.2514 52.6707 25.2729 49.5172C24.8999 48.3182 24.0575 47.1755 23.1777 46.244C21.8402 44.8315 20.3057 43.5997 18.8135 42.3421C17.2226 41 16.3005 39.2942 15.8336 37.2951C15.5145 35.9272 15.1719 34.5639 14.7871 33.2148C14.5408 32.3513 13.9049 31.9079 13.0063 32.0791C12.1193 32.2481 11.6806 32.8581 11.7486 33.7732C11.7721 34.0806 11.8636 34.3833 11.941 34.6859C12.5065 36.8774 13.0837 39.0642 13.6421 41.2557C13.8439 42.0488 13.7759 42.816 12.8584 43.0624C11.9082 43.3158 11.5351 42.6095 11.338 41.8446C10.7303 39.503 10.1296 37.1613 9.56182 34.8103C9.43512 34.2871 9.37646 33.7192 9.43277 33.1866C9.68617 30.8215 10.0123 28.4634 10.2798 26.0983C10.5661 23.576 10.8195 21.0513 11.0846 18.5267C11.1902 17.5271 10.925 16.7153 9.84338 16.4525C8.88372 16.2179 8.15401 16.7927 7.84195 17.9448C7.75982 18.2451 7.68474 18.5501 7.61904 18.8551C5.9461 26.7928 4.28958 34.7352 2.59082 42.6706C2.14033 44.7752 2.53217 46.6148 3.62556 48.4825C6.48576 53.3629 10.5097 57.5957 11.9363 63.2949C17.2156 61.9387 22.4573 60.5919 27.807 59.2193V59.2146ZM11.8542 75.8291C12.0771 75.7986 12.354 75.7916 12.6168 75.7235C19.4587 73.9872 26.303 72.258 33.1379 70.4959C34.6959 70.0946 35.2449 69.1491 34.8859 67.5934C34.5293 66.0355 34.121 64.4892 33.701 62.9453C33.159 60.9556 32.2299 60.477 30.2073 61.0096C26.3992 62.0138 22.584 62.9899 18.7689 63.9683C15.897 64.7051 13.0203 65.416 10.1531 66.1692C8.63032 66.5681 7.94753 67.523 8.2596 68.9003C8.6749 70.7235 9.15121 72.5372 9.6721 74.3345C9.96539 75.3458 10.7397 75.8291 11.8519 75.8291H11.8542Z" fill="#55489D"/>
<path d="M38.8258 0.639253C43.5162 0.639253 48.2065 0.632214 52.8969 0.641599C56.2662 0.648638 58.1222 2.49287 58.1269 5.85753C58.1386 12.4249 58.1386 18.9924 58.1269 25.5574C58.1222 28.9291 56.2639 30.7781 52.9062 30.7874C50.1305 30.7945 47.3548 30.8086 44.5814 30.7781C43.5443 30.7663 42.709 31.076 41.9418 31.794C39.9427 33.6617 37.8967 35.4778 35.8647 37.3056C33.3964 39.5276 30.5737 38.7416 29.6399 35.581C29.3536 34.6096 29.0509 33.6406 28.7811 32.6622C28.4456 31.4397 27.6291 30.8461 26.3972 30.7968C25.6159 30.7663 24.8346 30.8015 24.0532 30.7781C21.491 30.7006 19.5529 28.84 19.4262 26.2637C19.3558 24.8207 19.4028 23.373 19.4028 21.9253C19.4028 16.6085 19.3981 11.294 19.4028 5.97719C19.4075 2.46471 21.2329 0.646292 24.7524 0.641599C29.4428 0.63456 34.1331 0.641599 38.8235 0.641599L38.8258 0.639253ZM38.7672 3.00202C34.1144 3.00202 29.4616 2.99968 24.8088 3.00202C22.4976 3.00202 21.7444 3.76693 21.7421 6.11797C21.7374 9.67503 21.7421 13.2344 21.7421 16.7915C21.7421 19.762 21.721 22.7348 21.7515 25.7053C21.7702 27.5753 22.636 28.3965 24.5037 28.4176C25.0903 28.4247 25.6769 28.4106 26.2635 28.4223C28.5958 28.4646 30.3039 29.6987 31.0148 31.8926C31.3152 32.8194 31.5522 33.7673 31.8032 34.7105C32.2537 36.3952 33.089 36.6604 34.3678 35.5059C36.4279 33.6476 38.4903 31.794 40.5316 29.9123C41.6555 28.8775 42.9577 28.4059 44.4758 28.4153C47.329 28.4341 50.1845 28.4294 53.0376 28.4153C54.9616 28.4059 55.7453 27.6433 55.75 25.7029C55.7641 19.0557 55.7641 12.4109 55.75 5.76367C55.7453 3.77866 54.9476 3.00672 52.9579 3.00437C48.2276 2.99733 43.4974 3.00202 38.7648 3.00202H38.7672Z" fill="#55489D"/>
<path d="M49.503 19.7447C46.9807 19.7682 44.9159 17.7832 44.8761 15.2984C44.8362 12.7643 46.915 10.6644 49.4561 10.6714C51.9644 10.6784 54.0057 12.7033 54.0174 15.1952C54.0291 17.7057 52.0277 19.7213 49.503 19.7447ZM51.6617 15.1975C51.6476 14.0009 50.5824 12.9638 49.3998 12.999C48.1914 13.0342 47.2154 14.0806 47.2576 15.3007C47.2975 16.481 48.2595 17.4101 49.4444 17.4125C50.6645 17.4171 51.6758 16.4059 51.664 15.1975H51.6617Z" fill="#55489D"/>
<path d="M43.2789 15.2713C43.2602 17.8288 41.3033 19.7551 38.7364 19.7434C36.1953 19.7317 34.2103 17.7467 34.2126 15.2197C34.215 12.6551 36.2892 10.6185 38.8443 10.6724C41.3878 10.7241 43.2954 12.7044 43.2766 15.2713H43.2789ZM38.7833 17.4135C40.0175 17.4041 40.9819 16.4069 40.956 15.168C40.9326 13.9949 39.9588 13.0188 38.7951 12.9977C37.6242 12.9765 36.5449 14.0394 36.5402 15.2173C36.5379 16.4163 37.5632 17.4229 38.781 17.4135H38.7833Z" fill="#55489D"/>
<path d="M28.0675 19.7454C25.5217 19.7407 23.5367 17.7674 23.532 15.2357C23.5273 12.6641 25.585 10.6298 28.1473 10.672C30.6367 10.7143 32.6992 12.8049 32.6687 15.2568C32.6382 17.7392 30.5781 19.75 28.0675 19.7454ZM30.2895 15.1841C30.2683 13.9827 29.1984 12.9574 28.0135 13.002C26.7981 13.0465 25.8267 14.1024 25.8807 15.3178C25.9323 16.498 26.906 17.4225 28.0886 17.4178C29.3087 17.4131 30.3106 16.3971 30.2895 15.1864V15.1841Z" fill="#55489D"/>
</svg>
