<svg width="96" height="85" viewBox="0 0 96 85" fill="none" xmlns="http://www.w3.org/2000/svg">
<path d="M9.04051 39.9921C7.74261 39.9921 6.58503 40.0028 5.42744 39.9921C1.87374 39.9517 -0.168902 37.1798 0.902336 33.776C3.09878 26.8017 7.65357 22.0966 14.6342 19.7656C14.931 19.6661 15.2197 19.5424 15.7054 19.3542C11.8387 16.6199 10.0092 13.0279 10.843 8.37119C11.3503 5.54545 12.9315 3.36766 15.2953 1.74642C19.5532 -1.17073 27.6051 -0.864229 30.9996 7.23659C36.3477 4.78994 41.9602 3.40261 47.8695 3.40799C53.7519 3.41337 59.3483 4.74155 64.7341 7.25003C67.0088 2.13627 70.7838 -0.58999 76.4557 0.23004C80.7137 0.845734 83.5874 3.4779 84.7045 7.58073C86.0294 12.4445 84.2674 16.351 80.3899 19.0827C82.8184 20.4619 85.4142 21.6664 87.7024 23.3011C91.4018 25.9413 93.69 29.6731 94.9339 34.0206C95.8405 37.1959 93.779 39.9302 90.4709 39.9867C89.2674 40.0082 88.0639 39.9894 86.9064 39.9894C86.677 42.6619 86.6041 45.2107 86.221 47.7111C84.4293 59.4631 78.3715 68.4861 68.3742 74.8931C67.4541 75.4846 67.2328 75.9094 67.6133 76.9821C68.018 78.1194 68.2636 79.4368 68.1071 80.6145C67.8507 82.553 66.2965 83.8032 64.3267 84.0828C63.8383 84.1527 63.3418 84.1769 62.848 84.1769C52.8669 84.1823 42.883 84.1715 32.9019 84.1876C30.8916 84.1903 29.1728 83.7064 28.0638 81.8727C27.0384 80.1762 27.4243 78.4716 28.1582 76.8531C28.6061 75.8664 28.2931 75.4819 27.4917 74.9657C15.4059 67.1525 9.30495 56.0297 9.03782 41.6993C9.02702 41.1751 9.03782 40.6535 9.03782 39.9867L9.04051 39.9921ZM11.299 39.9921C8.54132 50.2223 19.0243 69.6314 29.4939 73.7585C32.4162 68.5963 36.8172 65.2302 42.6213 63.5444C35.8755 58.8205 36.6472 51.4053 40.2333 47.574C44.359 43.17 51.1831 43.084 55.3682 47.3965C59.073 51.2117 60.0013 58.6968 53.1772 63.5444C58.9597 65.2355 63.3391 68.6367 66.2911 73.7854C77.187 68.8813 87.5135 49.6604 84.4158 39.9921C83.9166 39.9921 83.3823 39.9921 82.8481 39.9921C74.888 39.9921 66.9279 40.0109 58.9678 39.9786C55.7919 39.9652 53.7411 37.2551 54.5695 34.2196C56.2883 27.9148 60.2144 23.4355 66.086 20.6206C67.1168 20.1258 68.2231 19.7951 69.4292 19.3381C69.0218 19.0128 68.7142 18.7708 68.4093 18.5261C65.8081 16.4263 64.4508 13.6866 64.3807 10.3742C64.3618 9.44664 64.0299 9.04603 63.2393 8.69651C59.6829 7.12098 55.9915 6.06166 52.1248 5.62879C45.2684 4.86254 38.6898 5.90034 32.4243 8.78255C31.9791 8.98688 31.4718 9.63215 31.4502 10.0946C31.2775 13.7753 29.8339 16.7436 26.8117 18.9187C26.6498 19.0343 26.5338 19.2144 26.3476 19.4187C26.8603 19.6069 27.2813 19.7602 27.6995 19.9161C34.3428 22.3547 38.9462 26.713 41.0832 33.5905C42.2759 37.4298 39.4157 40.1158 36.1992 40.0432C28.4226 39.8711 20.6407 39.9867 12.8614 39.9867C12.3298 39.9867 11.7955 39.9867 11.2963 39.9867L11.299 39.9921ZM74.7423 38.067V38.0724C79.8178 38.0724 84.8907 38.0778 89.9663 38.0697C92.5675 38.0643 93.6711 36.5883 92.9209 34.1631C90.4493 26.1779 83.3014 20.8195 74.9284 20.6743C66.7633 20.5318 59.3429 25.8929 56.7012 33.8459C55.7865 36.599 56.8604 38.067 59.7908 38.0697C64.7746 38.0697 69.7611 38.0697 74.745 38.0697L74.7423 38.067ZM21.0427 38.0724V38.067C26.0724 38.067 31.1021 38.0724 36.1318 38.067C38.8571 38.0643 39.9391 36.556 39.1 33.9454C36.5581 26.0354 29.1755 20.6421 20.9294 20.6743C12.6482 20.7039 5.31951 26.1349 2.86133 34.0637C2.07611 36.5963 3.15005 38.0697 5.816 38.0724C10.8916 38.0805 15.9671 38.0724 21.04 38.0724H21.0427ZM47.8668 82.1631C52.9883 82.1631 58.1124 82.1685 63.2339 82.1631C65.7163 82.1577 66.7363 80.8188 66.0374 78.4044C64.1 71.7205 59.5641 67.7037 52.9829 65.7087C43.161 62.7298 32.2948 68.6609 29.672 78.5093C29.0568 80.8215 30.0794 82.1604 32.4944 82.1631C37.6159 82.1712 42.74 82.1658 47.8615 82.1658L47.8668 82.1631ZM29.3536 10.3339C29.3347 5.66106 25.6542 2.02873 20.9537 2.03948C16.3179 2.05293 12.551 5.81162 12.5753 10.4065C12.5969 14.9879 16.4016 18.7304 21.0292 18.7224C25.6757 18.7143 29.3725 14.9879 29.3536 10.3312V10.3339ZM74.8286 2.03948C70.1173 2.02066 66.4395 5.63148 66.399 10.307C66.3612 14.9502 70.0687 18.7063 74.7018 18.7224C79.3402 18.7385 83.1395 15.0228 83.18 10.4334C83.2204 5.83851 79.4563 2.0583 74.8286 2.03948ZM47.6888 62.8776C52.2624 62.9879 56.1345 59.3636 56.2641 54.8494C56.399 50.1739 52.7266 46.27 48.0692 46.1356C43.5711 46.0092 39.6207 49.7222 39.4912 54.2014C39.3536 58.9119 42.9937 62.7647 47.6888 62.8776Z" fill="#55489D"/>
</svg>
