<svg width="1441" height="439" viewBox="0 0 1441 439" fill="none" xmlns="http://www.w3.org/2000/svg">
<path opacity="0.15" d="M-119.039 421.298C-111.833 420.45 -106.533 414.902 -100.878 409.999C-87.3588 398.278 -72.8447 388.355 -58.9189 377.332C-21.6263 347.813 20.1591 325.991 59.6514 300.821C106.106 271.214 157.145 245.663 208.699 231.556C230.557 225.575 252.554 221.262 273.83 232.416C297.003 244.564 318.625 262.355 320.172 293.821C321.636 323.603 304.082 349.587 293.87 375.121C284.679 398.101 279.257 419.656 279.257 445.123C279.257 463.492 293.691 473.492 307.021 479.264C323.04 486.2 339.16 489.053 356.182 489.58C397.815 490.869 436.232 487.141 474.961 467.965C610.896 400.662 722.288 278.83 859.688 213.994C893.924 197.839 949.762 205.18 962.289 254.03C970.042 284.266 963.179 317.746 952.895 345.647C935.605 392.557 919.409 441.983 910.936 492.282C908.279 508.056 897.388 555.376 915.32 563.757C984.839 596.252 1060.29 526.939 1112.17 480.492C1149.15 447.392 1183.92 413.615 1215.19 373.033C1250.98 326.586 1286.92 280.391 1323.01 234.258C1354.68 193.775 1385.25 150.697 1423.84 118.939C1459.2 89.8362 1497.8 65.9661 1534.27 38.8672" stroke="#2E2C70" stroke-width="77.7047" stroke-linecap="round"/>
</svg>
