<svg width="76" height="74" viewBox="0 0 76 74" fill="none" xmlns="http://www.w3.org/2000/svg">
<path d="M0.0576172 27.736C0.65208 27.0163 1.41454 26.8473 2.32993 26.8516C8.78932 26.8841 15.2466 26.8689 21.706 26.8689H22.91V23.6912C22.7958 23.624 22.7398 23.5655 22.6773 23.559C20.1164 23.3271 19.9958 23.1948 19.9958 20.6089C19.9958 19.6703 19.9872 18.7317 19.998 17.7931C20.0173 16.0786 20.4912 15.5995 22.1777 15.5974C26.6275 15.593 31.0774 15.5974 35.5251 15.5974C35.9149 15.5974 36.3026 15.5974 36.854 15.5974C36.854 15.127 36.854 14.7455 36.854 14.364C36.854 10.2108 36.8626 6.05769 36.8475 1.90672C36.8454 1.07652 36.8238 0.157455 37.8555 0.0620796C38.8528 -0.0311277 39.15 0.768721 39.0789 1.80484C39.7638 1.80484 40.3605 1.80484 40.9592 1.80484C43.1475 1.80484 45.338 1.78967 47.5263 1.81134C49.1008 1.82652 49.846 2.56567 49.8675 4.12852C49.8912 6.0772 49.8912 8.02805 49.8675 9.9789C49.8482 11.5591 49.1115 12.2961 47.5457 12.3091C45.142 12.3264 42.7383 12.3134 40.3325 12.3156C39.9512 12.3156 39.5678 12.3156 39.1306 12.3156V15.5497C39.5398 15.5692 39.9211 15.5995 40.3001 15.5995C44.7845 15.6039 49.2709 15.5995 53.7552 15.6039C55.4396 15.6039 55.9048 16.0807 55.922 17.8083C55.9328 18.9637 55.9328 20.119 55.922 21.2743C55.9069 23.0149 55.4956 23.4376 53.7725 23.52C53.5592 23.5308 53.3482 23.5568 53.0509 23.5828V26.8754C53.4666 26.8754 53.8522 26.8754 54.2377 26.8754C60.7316 26.8754 67.2276 26.8646 73.7214 26.8949C74.2965 26.8971 74.8694 27.1659 75.4424 27.309V33.3783C74.8845 33.5712 74.3267 33.7619 73.6913 33.9809C73.6913 34.3689 73.6913 34.7981 73.6913 35.2294C73.6913 47.2228 73.6913 59.2162 73.6913 71.2096C73.6913 73.0261 73.03 73.6893 71.2273 73.6893C49.0448 73.6893 26.8601 73.6893 4.67762 73.6893C2.93085 73.6893 2.24162 73.0131 2.24162 71.2941C2.23731 65.6952 2.23947 60.0963 2.24162 54.4951C2.24162 54.2069 2.15547 53.8297 2.30193 53.6498C2.58839 53.29 3.00624 52.8109 3.37455 52.8066C3.73424 52.8044 4.18439 53.2748 4.43209 53.6476C4.60439 53.9034 4.51609 54.3477 4.51609 54.7076C4.52039 59.8383 4.51609 64.9669 4.52039 70.0976C4.52039 70.5116 4.55485 70.9278 4.57424 71.357H22.8798V33.8508H4.51609C4.51609 34.2973 4.51609 34.6832 4.51609 35.069C4.51609 39.2959 4.51609 43.5227 4.51609 47.7495C4.51609 48.0747 4.62378 48.4844 4.4687 48.7055C4.17362 49.1325 3.71485 49.7481 3.34655 49.7329C2.96747 49.7177 2.56254 49.0783 2.26962 48.6448C2.13608 48.4453 2.23947 48.0812 2.23947 47.7929C2.23947 43.5292 2.23947 39.2677 2.23947 35.004C2.23947 34.6203 2.23947 34.2345 2.23947 33.8508C2.12962 33.9375 2.01977 34.0242 1.90993 34.1109C1.29393 33.6514 0.677926 33.1897 0.059771 32.7302C0.059771 31.0676 0.059771 29.4072 0.059771 27.7446L0.0576172 27.736ZM50.6235 71.3505V23.5135C47.3777 23.5135 44.2223 23.5156 41.0669 23.5091C40.6749 23.5091 40.2118 23.572 39.9103 23.3899C39.5678 23.1818 39.1629 22.7288 39.1651 22.3841C39.1694 22.033 39.5743 21.5973 39.9168 21.3675C40.1752 21.1963 40.6103 21.2743 40.9678 21.2743C44.8082 21.27 48.6463 21.2722 52.4866 21.2722C52.8679 21.2722 53.2491 21.2722 53.6605 21.2722V17.8755H22.2875V21.2288C22.5804 21.2461 22.7937 21.27 23.0047 21.27C26.9872 21.2722 30.9718 21.2743 34.9543 21.27C35.7361 21.27 36.3328 21.5301 36.3284 22.4145C36.3241 23.2555 35.7146 23.4896 35.0038 23.5026C33.9269 23.52 32.85 23.5113 31.7752 23.5113C29.6321 23.5113 27.489 23.5113 25.2986 23.5113V71.331H27.9909C28.3678 69.4777 27.1509 67.0196 30.1706 66.4083C30.1706 65.9748 30.1706 65.5825 30.1706 65.188C30.1706 61.3231 30.1663 57.4604 30.1727 53.5956C30.1749 51.8875 30.806 51.2351 32.5118 51.2264C36.1712 51.209 39.8328 51.2069 43.4921 51.2264C45.1183 51.2351 45.7515 51.9114 45.7537 53.5609C45.7623 57.4604 45.7558 61.3621 45.7558 65.2617C45.7558 65.6497 45.7558 66.0398 45.7558 66.4148C48.8122 67.0716 47.5005 69.5752 47.9592 71.3462H50.6235V71.3505ZM71.3328 71.3462V33.866H53.0186V71.3462H71.3328ZM36.7958 53.5392H32.4558V66.4083H36.7958V53.5392ZM39.1478 53.5262V66.4083H43.4512V53.5262H39.1478ZM2.29547 31.4751H22.9078V29.1189H2.29547V31.4751ZM53.0229 31.4751H73.5965V29.1146H53.0229V31.4751ZM39.1349 9.94422H47.5866V4.15887H39.1349V9.94422ZM30.302 71.3483H45.6029V68.7624H30.302V71.3483Z" fill="#55489D"/>
<path d="M13.7546 58.5046C12.1759 58.5046 10.5971 58.5155 9.01832 58.5003C7.68294 58.4873 7.03463 57.8608 7.00878 56.5147C6.97863 54.9996 6.97647 53.4823 7.00878 51.9649C7.03678 50.6774 7.68509 50.0488 8.95802 50.0444C12.1866 50.0314 15.4153 50.0314 18.6439 50.0444C19.9319 50.0488 20.55 50.6665 20.5673 51.9606C20.5888 53.5126 20.591 55.0668 20.5673 56.6188C20.5479 57.8543 19.9276 58.4808 18.7042 58.4981C17.0543 58.522 15.4045 58.5046 13.7525 58.5046H13.7546ZM14.9866 56.1354H18.2863V52.3724H14.9866V56.1354ZM9.32848 56.2373C10.3042 56.2373 11.1614 56.272 12.0143 56.2156C12.2491 56.2004 12.6519 55.9208 12.6605 55.7452C12.7186 54.6137 12.6906 53.4779 12.6906 52.3638H9.32848V56.2395V56.2373Z" fill="#55489D"/>
<path d="M13.7221 47.2804C12.1088 47.2804 10.4977 47.2999 8.88451 47.2739C7.63528 47.2544 7.04081 46.6713 7.01281 45.4097C6.9762 43.8599 6.9762 42.3079 7.01281 40.758C7.04081 39.516 7.6482 38.8939 8.89312 38.8809C12.1885 38.8505 15.4861 38.8505 18.7814 38.8831C19.9811 38.8961 20.5476 39.5117 20.567 40.7104C20.5928 42.2971 20.5928 43.8837 20.567 45.4704C20.5454 46.6886 19.9919 47.25 18.7728 47.2717C17.0885 47.3021 15.4042 47.2782 13.7199 47.2804H13.7221ZM9.33682 45.0109H12.6279V41.1829H9.33682V45.0109ZM15.0101 41.1764V45.0196H18.2882V41.1764H15.0101Z" fill="#55489D"/>
<path d="M28.6943 35.7245C28.6879 30.5417 32.8319 26.3235 37.943 26.3062C43.0368 26.2889 47.2282 30.5244 47.2304 35.6876C47.2304 40.8639 43.0756 45.0886 37.9796 45.0951C32.8728 45.0994 28.7008 40.8899 28.6943 35.7245ZM37.999 28.5627C34.0833 28.5475 30.8805 31.7729 30.8913 35.718C30.902 39.6175 34.066 42.8277 37.9236 42.8516C41.8199 42.8754 45.0442 39.624 45.0313 35.6855C45.0184 31.7773 41.8587 28.5757 37.999 28.5627Z" fill="#55489D"/>
<path d="M62.0721 58.5044C60.4934 58.5044 58.9146 58.5152 57.3358 58.5C55.9789 58.487 55.3651 57.8801 55.3478 56.5232C55.3306 54.9711 55.3241 53.417 55.3521 51.8671C55.3737 50.6988 56.0026 50.055 57.1506 50.0485C60.4503 50.029 63.7521 50.0312 67.0518 50.0485C68.1998 50.055 68.8654 50.6793 68.8998 51.8455C68.9472 53.469 68.9494 55.0947 68.8977 56.7182C68.8611 57.8692 68.1805 58.4827 67.0217 58.5C65.3718 58.5239 63.722 58.5065 62.0721 58.5065V58.5044ZM57.6589 52.3223V56.1503H60.9069V52.3223H57.6589ZM63.2912 52.3418V56.1742H66.5758V52.3418H63.2912Z" fill="#55489D"/>
<path d="M62.0848 47.2817C60.4716 47.2817 58.8605 47.299 57.2472 47.2774C55.9075 47.2578 55.3648 46.7073 55.3475 45.359C55.3282 43.8439 55.3282 42.3309 55.3475 40.8157C55.3648 39.5216 55.9011 38.8995 57.1417 38.8865C60.4737 38.8518 63.8057 38.854 67.1377 38.8909C68.262 38.9039 68.863 39.5238 68.8974 40.6575C68.9448 42.2788 68.947 43.9024 68.8974 45.5238C68.8608 46.7051 68.2426 47.2578 67.03 47.2752C65.3823 47.299 63.7346 47.2817 62.0848 47.2817ZM57.6134 45.023H60.9325V41.2124H57.6134V45.023ZM66.5777 45.0556V41.1777H63.3082V45.0556H66.5777Z" fill="#55489D"/>
<path d="M39.0674 35.637C39.6812 35.6652 40.1766 35.5525 40.5169 35.7367C40.924 35.9557 41.4603 36.4282 41.4582 36.788C41.4582 37.163 40.9283 37.7895 40.5492 37.861C39.6834 38.0236 38.7422 38.0366 37.8828 37.861C37.48 37.7786 36.9459 37.137 36.9049 36.7057C36.7779 35.3834 36.7757 34.0308 36.9071 32.7086C36.948 32.3011 37.5188 31.7245 37.9366 31.6313C38.6215 31.4796 39.0523 32.002 39.0652 32.7389C39.0803 33.6688 39.0695 34.5987 39.0695 35.637H39.0674Z" fill="#55489D"/>
</svg>
