<svg width="22" height="21" viewBox="0 0 22 21" fill="none" xmlns="http://www.w3.org/2000/svg">
<path d="M21.053 10.366C21.053 12.1569 21.1882 13.9587 21.0215 15.7353C20.7613 18.5066 18.3848 20.5267 15.5329 20.5541C12.2846 20.5848 9.03626 20.5848 5.78794 20.5541C2.68829 20.5245 0.223896 18.1118 0.199117 15.0927C0.173211 11.9474 0.173211 8.80212 0.199117 5.65684C0.223896 2.61246 2.70519 0.206352 5.83525 0.184419C9.04527 0.162485 12.2564 0.162485 15.4676 0.184419C18.6269 0.206352 21.0913 2.62672 21.1183 5.70181C21.1319 7.2558 21.1206 8.81089 21.1206 10.3649C21.0981 10.3649 21.0755 10.3649 21.053 10.3649V10.366ZM10.6334 18.8455C12.003 18.8455 13.3737 18.8477 14.7433 18.8455C17.4578 18.8389 19.3523 17.0108 19.3579 14.3809C19.3647 11.7127 19.3647 9.04338 19.3579 6.37517C19.3511 3.73546 17.4668 1.90072 14.7591 1.89524C12.0188 1.88975 9.27955 1.88975 6.5392 1.89524C3.86305 1.90072 1.96407 3.73327 1.95393 6.3302C1.94267 9.01706 1.94492 11.7039 1.95393 14.3908C1.96294 16.9954 3.85291 18.8334 6.52343 18.8433C7.89304 18.8488 9.26378 18.8433 10.6334 18.8444V18.8455Z" fill="white"/>
</svg>
