<svg width="20" height="19" viewBox="0 0 20 19" fill="none" xmlns="http://www.w3.org/2000/svg">
<path d="M11.765 6.86657C12.2113 6.43079 12.6807 6.13119 13.2649 6.06607C13.6496 6.02318 14.0385 6.00878 14.4261 6.00345C14.9314 5.99625 15.4371 6.00001 15.9422 6.01754C17.6266 6.07577 18.8357 6.86845 19.5974 8.3289C19.8883 8.88615 20.001 9.48912 20.0013 10.1121C20.0029 12.7991 20.0022 15.4862 20.0019 18.1732C20.0019 18.5157 19.8717 18.6406 19.5166 18.6406C18.2182 18.6409 16.9201 18.6412 15.6217 18.6406C15.2715 18.6406 15.1406 18.5123 15.1406 18.1688C15.1406 15.8471 15.1377 13.5251 15.1428 11.2035C15.1441 10.6212 14.9337 10.1484 14.4615 9.79216C13.4973 9.0646 12.0278 9.60057 11.7839 10.7699C11.766 10.8556 11.7669 10.9461 11.7666 11.0347C11.7657 13.393 11.766 15.7513 11.766 18.1097C11.766 18.1566 11.7682 18.2036 11.765 18.2505C11.7484 18.5066 11.6099 18.6384 11.3458 18.6391C10.4573 18.6412 9.56852 18.6403 8.68002 18.6406C8.24902 18.6406 7.81802 18.6416 7.38702 18.6406C7.03551 18.64 6.91451 18.5226 6.91451 18.1823C6.91419 16.0848 6.91388 13.9872 6.91419 11.89C6.91419 10.0899 6.91483 8.28977 6.91547 6.48964C6.91547 6.15748 7.0502 6.02412 7.38606 6.02412C8.68449 6.02412 9.9826 6.0238 11.281 6.02412C11.6261 6.02412 11.7628 6.15842 11.765 6.49684C11.7657 6.60423 11.765 6.71161 11.765 6.86626V6.86657ZM19.2446 17.8968C19.2446 17.8385 19.2446 17.7972 19.2446 17.7559C19.2446 15.1894 19.2453 12.6229 19.2434 10.0564C19.243 9.6253 19.1667 9.20517 18.9908 8.80883C18.4771 7.65205 17.5867 6.93232 16.309 6.78706C15.5157 6.69689 14.7048 6.74229 13.9021 6.7498C13.4054 6.7545 12.9227 6.8647 12.5421 7.20093C12.2391 7.4686 11.9693 7.77227 11.6878 8.06248C11.5534 8.20117 11.4158 8.24656 11.2612 8.19115C11.1 8.13355 11.0116 8.00237 11.0103 7.81359C11.009 7.59445 11.0103 7.3753 11.0103 7.15616C11.0103 7.02843 11.0103 6.9007 11.0103 6.7786H7.67276V17.894H11.0103C11.0103 17.8232 11.0103 17.7615 11.0103 17.6999C11.0103 15.4671 11.0103 13.2346 11.0103 11.0018C11.0103 10.9392 11.0071 10.876 11.0148 10.8143C11.1635 9.60119 12.2854 8.66419 13.5254 8.71585C14.865 8.77188 15.895 9.82253 15.8962 11.1399C15.8982 13.3307 15.8969 15.5219 15.8972 17.7127C15.8972 17.7722 15.8972 17.832 15.8972 17.8962H19.245L19.2446 17.8968Z" fill="white"/>
<path d="M0.6875 12.3453C0.6875 10.3993 0.6875 8.45294 0.6875 6.50693C0.6875 6.16256 0.818077 6.03139 1.16447 6.03139C2.46258 6.03108 3.76101 6.03139 5.05912 6.03139C5.39147 6.03139 5.53801 6.17321 5.53801 6.49441C5.53801 10.3918 5.53801 14.2894 5.53801 18.1867C5.53801 18.5177 5.40424 18.6476 5.06359 18.6476C3.76005 18.6476 2.45652 18.6479 1.15298 18.6476C0.807222 18.6476 0.6875 18.5274 0.6875 18.1836C0.6875 16.2376 0.6875 14.2913 0.6875 12.3453ZM4.76827 17.9113V6.78587H1.43968C1.43712 6.84285 1.43297 6.88887 1.43297 6.93489C1.43297 10.5398 1.43361 14.1445 1.4301 17.7494C1.4301 17.8818 1.47064 17.9144 1.60058 17.9138C2.61136 17.9091 3.62213 17.9113 4.63291 17.9113C4.67441 17.9113 4.71592 17.9113 4.76764 17.9113H4.76827Z" fill="white"/>
<path d="M3.11303 4.99946C1.7383 5.00259 0.615787 3.90937 0.609402 2.56162C0.603017 1.20731 1.72394 0.102189 3.10441 0.101563C4.49798 0.100937 5.60869 1.18445 5.61092 2.54628C5.61316 3.90686 4.50373 4.99601 3.11303 4.99915V4.99946ZM4.85747 2.54941C4.85364 1.60271 4.0657 0.828812 3.11463 0.837578C2.13674 0.846657 1.36062 1.61147 1.36573 2.561C1.37084 3.49863 2.16324 4.27002 3.11878 4.26783C4.07273 4.26564 4.8613 3.4861 4.85747 2.54941Z" fill="white"/>
</svg>
