<svg width="21" height="19" viewBox="0 0 21 19" fill="none" xmlns="http://www.w3.org/2000/svg">
<circle cx="9.58753" cy="9.22083" r="9.22034" fill="white"/>
<path fill-rule="evenodd" clip-rule="evenodd" d="M7.20698 3.53066C6.26888 3.57298 5.45577 3.80235 4.79922 4.45614C4.14037 5.11336 3.91387 5.92959 3.87144 6.85793C3.84506 7.43736 3.69081 11.8148 4.13807 12.9628C4.43969 13.7373 5.03374 14.3328 5.81531 14.6353C6.18 14.7772 6.59629 14.8733 7.20698 14.9013C12.3132 15.1324 14.206 15.0066 15.0042 12.9628C15.1458 12.599 15.2433 12.1832 15.2703 11.574C15.5037 6.45471 15.2324 5.34506 14.3425 4.45617C13.6366 3.75204 12.8063 3.27272 7.20694 3.53069M7.25498 13.8718C6.6959 13.8466 6.39256 13.7534 6.19015 13.675C5.68096 13.4771 5.2985 13.0962 5.10181 12.59C4.76121 11.7177 4.87417 7.57474 4.90456 6.90436C4.93438 6.24772 5.06741 5.6477 5.53073 5.18439C6.10414 4.61239 6.84499 4.33211 11.8893 4.55977C12.5476 4.58951 13.1491 4.72222 13.6136 5.18439C14.187 5.75637 14.4714 6.50282 14.2397 11.5278C14.2145 12.0855 14.121 12.3881 14.0425 12.59C13.5235 13.9199 12.3297 14.1046 7.25497 13.8718M11.9438 6.16254C11.9438 6.5412 12.2518 6.84893 12.6319 6.84893C13.0121 6.84893 13.3206 6.5412 13.3206 6.16254C13.3206 5.78388 13.0121 5.47615 12.6319 5.47615C12.2518 5.47615 11.9438 5.78388 11.9438 6.16254ZM6.62656 9.21582C6.62656 10.838 7.94484 12.153 9.57103 12.153C11.1972 12.153 12.5155 10.838 12.5155 9.21582C12.5155 7.59365 11.1972 6.27921 9.57103 6.27921C7.94484 6.27921 6.62656 7.59365 6.62656 9.21582ZM7.65994 9.2158C7.65994 8.16334 8.51547 7.30936 9.57112 7.30936C10.6268 7.30936 11.4823 8.16334 11.4823 9.2158C11.4823 10.2688 10.6268 11.1228 9.57112 11.1228C8.51547 11.1228 7.65994 10.2688 7.65994 9.2158Z" fill="#139161"/>
</svg>
