<svg width="57" height="56" viewBox="0 0 57 56" fill="none" xmlns="http://www.w3.org/2000/svg">
<path d="M56.9225 19.2668C56.9225 24.955 56.9225 30.6469 56.9225 36.3351C56.9225 37.4108 56.6589 37.6673 55.5868 37.7029C51.4444 37.8489 47.2948 37.9308 43.1773 38.5186C38.4222 39.1989 33.8524 40.4562 29.628 42.8035C29.1187 43.0848 28.677 43.1169 28.1534 42.8248C23.9148 40.4598 19.3236 39.1989 14.5507 38.515C10.4546 37.9273 6.32644 37.856 2.20182 37.7029C1.05847 37.6673 0.819824 37.4322 0.819824 36.2675C0.819824 24.9871 0.819824 13.7032 0.819824 2.42279C0.819824 1.0123 0.90887 0.916127 2.28374 0.730911C5.83847 0.2465 9.411 -0.00282909 13.0013 0.0577223C17.4608 0.136083 21.8561 0.638303 26.084 2.15565C26.9068 2.45128 27.6904 2.84665 28.5061 3.16009C28.7127 3.23845 29.0118 3.27051 29.1971 3.18146C32.4775 1.58575 35.9753 0.812834 39.5692 0.388974C45.0437 -0.252158 50.4933 0.0755315 55.9358 0.770092C56.6732 0.866262 56.9225 1.19395 56.9225 2.0203C56.9225 7.76912 56.9225 13.5179 56.9225 19.2632V19.2668ZM55.0383 2.59732C54.9492 2.55814 54.9172 2.53321 54.8815 2.52964C49.4319 1.85646 43.9752 1.62494 38.5149 2.40854C35.6547 2.81815 32.8693 3.51271 30.2407 4.75936C29.9166 4.91252 29.799 5.09417 29.799 5.46461C29.8097 17.0014 29.8061 28.5383 29.8097 40.0751C29.8097 40.2175 29.8382 40.36 29.856 40.5346C29.9807 40.4883 30.0519 40.4669 30.1196 40.4313C34.8675 38.1161 39.9182 36.8908 45.147 36.4242C48.2494 36.1464 51.366 36.0502 54.4755 35.8685C54.6607 35.8578 54.8459 35.8329 55.0383 35.8151V2.60088V2.59732ZM27.9397 40.588V40.1036C27.9397 28.5525 27.9397 17.0014 27.9504 5.45036C27.9504 5.07993 27.8293 4.90183 27.5052 4.74867C24.5667 3.36668 21.4465 2.66856 18.2479 2.27319C14.2302 1.77809 10.2053 1.83865 6.1804 2.17346C5.02637 2.26963 3.87233 2.41567 2.72185 2.53677V35.865C11.37 36.0324 19.9327 36.5738 27.9397 40.5809V40.588Z" fill="#2E2D70"/>
<path d="M34.0222 55.2353C28.4336 55.2353 22.8451 55.1783 17.2566 55.2603C14.4712 55.2994 11.7499 54.9646 9.02514 54.4945C7.18366 54.1775 5.34219 53.8854 3.49359 53.604C1.97268 53.3725 0.986047 52.3716 0.93262 50.9611C0.87563 49.4331 1.72691 48.3467 3.287 48.0226C6.65651 47.3209 10.0296 46.6335 13.4026 45.9496C13.684 45.8926 13.9832 45.889 14.2717 45.889C27.4541 45.889 40.6365 45.889 53.8189 45.889C55.7993 45.889 56.9213 47.0181 56.9213 49.0128C56.9213 50.1027 56.9249 51.1962 56.9213 52.2861C56.9106 54.067 55.7352 55.2389 53.94 55.2424C47.3007 55.246 40.6615 55.2424 34.0186 55.2424L34.0222 55.2353ZM55.0086 49.6219C55.1653 48.0155 54.9302 47.7519 53.4129 47.7519C40.4228 47.7519 27.4328 47.7519 14.4427 47.7519C14.172 47.7519 13.8942 47.7448 13.6306 47.7982C10.3359 48.4714 7.04119 49.1553 3.74648 49.8391C3.06617 49.9816 2.78834 50.2808 2.80259 50.8222C2.81684 51.3565 3.10535 51.6307 3.80703 51.7447C5.89783 52.0902 7.98864 52.4464 10.0866 52.7598C11.6609 52.9949 13.2459 53.3297 14.8274 53.3369C27.7391 53.3832 40.6508 53.3618 53.566 53.3618C53.7619 53.3618 53.9578 53.3725 54.1502 53.3547C54.688 53.3012 55.005 52.9985 55.0513 52.4571C55.0763 52.1543 55.0549 51.8444 55.0549 51.4918C54.7877 51.4918 54.5776 51.4918 54.371 51.4918C50.9837 51.4918 47.5928 51.4918 44.2055 51.4918C43.3542 51.4918 42.9197 51.1784 42.9125 50.5693C42.9019 49.9531 43.3435 49.6219 44.1806 49.6219C45.9935 49.6219 47.803 49.6219 49.6159 49.6219C51.404 49.6219 53.1956 49.6219 55.0193 49.6219H55.0086Z" fill="#2E2D70"/>
<path d="M42.4351 10.34C44.4012 10.34 46.3709 10.3364 48.3371 10.34C49.0387 10.34 49.4804 10.7496 49.4377 11.3337C49.3985 11.8751 48.9924 12.2028 48.3264 12.2064C46.5348 12.2135 44.7432 12.2064 42.9515 12.2064C40.8109 12.2064 38.6666 12.2064 36.526 12.2064C35.8635 12.2064 35.4574 11.868 35.4254 11.3266C35.3897 10.7424 35.8278 10.3435 36.5331 10.34C38.4992 10.3328 40.4689 10.34 42.4351 10.34Z" fill="#2E2D70"/>
<path d="M42.4085 20.6311C40.421 20.6311 38.4335 20.6382 36.4495 20.6275C35.8191 20.6275 35.4095 20.225 35.4237 19.6729C35.4379 19.1458 35.8298 18.7896 36.4353 18.7611C36.4923 18.7611 36.5528 18.7611 36.6098 18.7611C40.4851 18.7611 44.3604 18.7611 48.2357 18.7611C49.0086 18.7611 49.4503 19.1173 49.436 19.7192C49.4218 20.2963 48.9943 20.6311 48.2464 20.6311C46.298 20.6311 44.3497 20.6311 42.4049 20.6311H42.4085Z" fill="#2E2D70"/>
<path d="M42.3658 28.1127C40.4175 28.1127 38.4692 28.1127 36.5244 28.1127C35.8833 28.1127 35.4915 27.81 35.4238 27.2971C35.3454 26.7129 35.7871 26.2534 36.4674 26.2499C38.1806 26.2392 39.8939 26.2499 41.6107 26.2499C43.8511 26.2499 46.0915 26.2499 48.3319 26.2499C48.973 26.2499 49.3648 26.5526 49.4325 27.0655C49.5144 27.6639 49.055 28.1127 48.3319 28.1163C46.3444 28.1234 44.3604 28.1163 42.3729 28.1163L42.3658 28.1127Z" fill="#2E2D70"/>
<path d="M15.2887 12.2096C13.3225 12.2096 11.3528 12.2345 9.38667 12.1882C9.05898 12.1811 8.64225 11.9424 8.44278 11.6789C8.29675 11.4865 8.33237 10.9914 8.48909 10.7813C8.66362 10.5462 9.06611 10.361 9.36886 10.3574C13.3225 10.3289 17.2762 10.336 21.2298 10.3432C21.9066 10.3432 22.3304 10.7278 22.3162 11.2942C22.3019 11.8569 21.8852 12.206 21.1906 12.2096C19.2245 12.2131 17.2548 12.2096 15.2887 12.2096Z" fill="#2E2D70"/>
<path d="M15.279 20.6275C13.352 20.6275 11.4215 20.6275 9.49454 20.6275C8.74655 20.6275 8.32269 20.2927 8.30845 19.7157C8.2942 19.1102 8.72874 18.7611 9.50879 18.7611C13.3841 18.7611 17.2594 18.7611 21.1347 18.7611C21.8826 18.7611 22.3065 19.0924 22.3208 19.6729C22.335 20.2749 21.8969 20.6275 21.1204 20.6311C19.1721 20.6311 17.2237 20.6311 15.279 20.6311V20.6275Z" fill="#2E2D70"/>
<path d="M15.3178 26.2408C17.2662 26.2408 19.2145 26.2408 21.1593 26.2408C21.8966 26.2408 22.324 26.5899 22.324 27.174C22.324 27.7546 21.893 28.1073 21.1593 28.1073C17.2626 28.1073 13.3695 28.1073 9.47283 28.1073C8.73553 28.1073 8.30811 27.7546 8.30811 27.174C8.30811 26.5899 8.73553 26.2408 9.47283 26.2408C11.4212 26.2408 13.3695 26.2408 15.3143 26.2408H15.3178Z" fill="#2E2D70"/>
</svg>
