<svg width="61" height="61" viewBox="0 0 61 61" fill="none" xmlns="http://www.w3.org/2000/svg">
<path d="M21.0985 15.0315C21.5163 15.2062 21.9096 15.3723 22.1753 15.483C23.4006 14.6319 24.4826 13.6839 25.7272 13.0489C29.6671 11.0387 34.4217 11.7463 37.6065 14.8032C38.3424 15.509 38.8965 15.5851 39.6464 15.0142C34.9688 10.8242 36.4651 5.0529 39.3213 2.58074C42.6268 -0.282405 47.5194 -0.182066 50.6396 2.84889C53.5395 5.66705 54.3331 11.1978 50.0785 14.9381C51.3877 15.6768 52.7983 16.31 54.0219 17.1957C58.0388 20.1021 60.1766 24.0656 60.5297 28.9891C60.687 31.1758 59.7571 32.764 57.9899 33.9594C56.0251 35.2898 53.7929 35.9368 51.4873 36.3139C49.5978 36.6236 47.6837 36.7845 45.6648 37.025C45.8378 37.2412 46.0161 37.4713 46.2014 37.6927C49.2936 41.3932 50.956 45.6109 51.0818 50.4393C51.1377 52.5828 50.3022 54.2384 48.6975 55.5705C46.4514 57.4372 43.7542 58.3489 40.9609 58.9855C35.252 60.2882 29.4749 60.4059 23.6873 59.6723C20.242 59.2364 16.8648 58.4752 13.8076 56.7348C12.0771 55.7504 10.427 54.5169 10.0459 52.5205C9.72954 50.8667 9.8152 49.0692 10.0687 47.3876C10.6507 43.5384 12.3935 40.177 15.0067 37.2654C15.0609 37.2049 15.0906 37.1201 15.1623 36.9921C13.5804 36.8364 12.0264 36.7343 10.4882 36.5198C8.03049 36.1755 5.62701 35.6133 3.45425 34.3538C0.804293 32.8211 -0.102915 30.8143 0.397011 27.8179C1.41784 21.711 4.78447 17.476 10.6018 15.1682C10.6787 15.137 10.7416 15.0696 10.8133 15.0177C6.18986 10.9124 7.55155 5.11518 10.4742 2.57209C13.7657 -0.289326 18.6828 -0.178606 21.7872 2.86619C24.7361 5.75874 25.4073 11.2774 21.0985 15.0315ZM31.5515 57.5842C32.7576 57.4839 35.1087 57.3351 37.4475 57.0773C38.6553 56.9441 39.8544 56.6673 41.0343 56.3646C43.1809 55.8127 45.2662 55.0965 47.0107 53.6606C48.1085 52.7558 48.7238 51.6209 48.5402 50.1781C48.3759 48.8962 48.2326 47.6022 47.9267 46.3496C45.4463 36.1859 33.8431 30.2001 24.0421 34.1168C16.7268 37.0405 12.8724 42.5506 12.2799 50.3165C12.1855 51.5517 12.5665 52.671 13.5611 53.3769C14.7515 54.2229 16.0188 55.0429 17.3735 55.5688C21.5495 57.1933 25.9614 57.5116 31.5497 57.5842H31.5515ZM36.5333 31.072C38.4718 32.1152 40.419 33.1723 42.3768 34.2085C42.5691 34.3106 42.8313 34.3227 43.0568 34.3106C45.6945 34.1739 48.3462 34.1376 50.9664 33.8383C52.9242 33.6151 54.826 33.0044 56.5163 31.9059C57.5826 31.2122 58.0808 30.3039 57.9584 28.9926C57.462 23.6625 54.7578 19.8703 49.832 17.739C46.579 16.3307 43.2333 16.4086 39.9121 17.7113C42.2282 22.6227 40.8386 27.9217 36.535 31.0686L36.5333 31.072ZM20.8905 17.7199C18.695 16.7702 16.3579 16.4691 14.0139 16.9086C8.09342 18.021 4.43487 21.5432 3.08717 27.375C2.41594 30.2762 3.04872 31.5028 5.79132 32.6913C5.89794 32.738 6.00632 32.7778 6.11644 32.8193C9.97776 34.257 13.9929 34.5009 18.0622 34.3019C18.2038 34.295 18.3576 34.2691 18.48 34.2033C20.4325 33.1619 22.3815 32.1118 24.2886 31.0876C19.9221 27.5844 18.6723 23.1227 20.894 17.7199H20.8905ZM30.5394 14.5039C26.0628 14.4589 22.4252 17.95 22.3815 22.3338C22.3361 26.7349 25.8897 30.3731 30.2999 30.4423C34.7014 30.5115 38.4141 26.9304 38.4595 22.5726C38.505 18.1455 34.9758 14.5489 30.5411 14.5039H30.5394ZM15.9891 14.1925C19.1058 14.1959 21.6841 11.658 21.6736 8.59766C21.6631 5.5373 19.0621 2.99767 15.9629 3.02362C12.8847 3.04957 10.3431 5.55287 10.3239 8.58036C10.3029 11.6407 12.8759 14.1873 15.9909 14.1907L15.9891 14.1925ZM44.8729 14.1925C47.9826 14.1786 50.5539 11.6113 50.5137 8.55614C50.4735 5.52346 47.9214 3.03054 44.8485 3.02362C41.744 3.0167 39.157 5.56671 39.164 8.62361C39.171 11.6892 41.751 14.2063 44.8729 14.1925Z" fill="#2E2D70"/>
</svg>
