<svg width="62" height="61" viewBox="0 0 62 61" fill="none" xmlns="http://www.w3.org/2000/svg">
<path d="M26.7314 34.5968C25.517 34.5968 24.4461 34.5618 23.3807 34.6227C23.1286 34.6374 22.8066 34.9143 22.6649 35.1562C21.1818 37.7221 18.9517 39.1822 16.0352 39.3521C12.2724 39.5717 8.90143 37.1443 7.95565 33.5446C7.72565 32.6733 7.30796 32.1343 6.60875 31.6082C2.51283 28.5236 0.317665 24.4181 0.198063 19.2401C0.128142 16.1869 0.100541 13.141 1.45113 10.289C4.24246 4.40034 8.86831 1.03697 15.3747 0.922522C25.6145 0.743463 35.8598 0.839453 46.1033 0.885603C54.0541 0.922522 61.3498 7.45913 61.405 16.6835C61.4271 20.2684 61.1713 23.7591 59.2227 26.8954C56.1535 31.8352 51.7246 34.4695 45.9064 34.5894C42.3202 34.6633 38.7302 34.5876 35.1422 34.6245C34.6582 34.6301 34.1118 34.7943 33.7088 35.0602C31.9424 36.2268 30.2293 37.4747 28.4684 38.6469C28.1537 38.8555 27.5778 39.0401 27.3312 38.8906C27.0203 38.7023 26.7884 38.1688 26.7571 37.7664C26.678 36.7622 26.7314 35.7487 26.7314 34.5968ZM28.5549 36.273C28.9541 36.0404 29.1897 35.9222 29.4049 35.7746C30.6157 34.9383 31.8007 34.0596 33.0427 33.2733C33.4769 32.9982 34.0455 32.8081 34.5552 32.8025C38.3254 32.7638 42.0975 32.8062 45.8696 32.773C51.6013 32.7213 56.5473 29.2213 58.6486 23.8625C59.6717 21.256 59.5447 18.5571 59.4914 15.8565C59.438 13.165 58.5714 10.7265 57.0092 8.55564C54.1884 4.63478 50.2986 2.71127 45.5181 2.68912C36.1064 2.64666 26.6927 2.67251 17.2791 2.68358C16.2395 2.68358 15.1925 2.71127 14.1639 2.84418C8.76527 3.54566 5.07784 6.51583 2.9434 11.4889C1.87986 13.9662 1.95162 16.5912 2.01418 19.2069C2.11538 23.4102 3.80637 26.864 6.98779 29.5868C7.181 29.7511 7.40916 29.8748 7.65389 30.0391C8.71927 25.2765 12.6128 22.9561 16.4603 23.3622C18.1991 23.5468 19.7061 24.2224 20.9868 25.3965C23.1139 27.3458 23.8278 29.8305 23.5297 32.7712C24.895 32.7712 26.1426 32.7896 27.3901 32.7638C28.2126 32.7472 28.5696 33.1237 28.553 33.9304C28.5383 34.6559 28.5493 35.3795 28.5493 36.2748L28.5549 36.273ZM21.7522 31.2999C21.743 27.8664 19.0529 25.1805 15.6212 25.1768C12.1712 25.175 9.40192 27.9365 9.424 31.359C9.44608 34.7224 12.2264 37.5061 15.5881 37.5282C18.9867 37.5504 21.7596 34.7482 21.7504 31.2981L21.7522 31.2999Z" fill="#2E2D70"/>
<path d="M24.5894 52.9863C24.5894 53.4367 24.5894 53.7616 24.5894 54.0883C24.5894 55.9029 24.5967 57.7175 24.582 59.5321C24.5765 60.1302 24.4035 60.6563 23.6638 60.6618C22.9278 60.6674 22.7328 60.156 22.7291 59.5506C22.7162 57.029 22.7052 54.5055 22.7328 51.9839C22.7438 50.9852 23.2369 50.6714 24.295 50.9742C26.4128 51.5815 28.5234 52.211 30.6247 52.8718C31.5723 53.1709 32.4574 53.145 33.405 52.8257C36.855 51.6627 40.3253 50.5606 43.7864 49.4235C45.3891 48.8974 46.1104 47.5683 45.6394 46.0565C45.2125 44.6923 43.7147 43.9982 42.1875 44.4911C39.1606 45.4676 36.1153 46.4035 33.1234 47.4816C31.7471 47.9781 30.5879 47.4428 29.3808 47.0921C25.8553 46.0675 22.3648 44.923 18.8282 43.9391C16.495 43.2912 14.0754 43.282 11.7386 43.8856C8.86994 44.6277 6.96734 47.273 6.94894 50.2505C6.93238 53.2041 6.94894 56.1558 6.9379 59.1094C6.9379 59.4416 6.97102 59.8514 6.79805 60.0859C6.59749 60.3572 6.18532 60.6194 5.87068 60.6138C5.60939 60.6083 5.34995 60.2151 5.10706 59.9751C5.05554 59.9234 5.0629 59.7979 5.0629 59.7075C5.08314 56.2647 4.93594 52.8091 5.1733 49.3792C5.46955 45.0929 9.25082 41.8993 13.5344 41.6538C17.0931 41.4508 20.3702 42.4217 23.6767 43.4536C26.1589 44.229 28.6503 44.9803 31.1564 45.6762C31.6441 45.811 32.2476 45.7519 32.7426 45.5987C35.7234 44.6757 38.6877 43.6955 41.6575 42.7392C44.1379 41.9399 46.6109 43.1158 47.3966 45.4602C48.2099 47.8877 46.874 50.4 44.344 51.2178C40.7614 52.3734 37.201 53.6028 33.589 54.6513C32.5898 54.9412 31.3993 54.8876 30.3671 54.6624C28.4663 54.2471 26.6171 53.5899 24.5894 52.9863Z" fill="#2E2D70"/>
<path d="M36.761 19.8161C39.7639 16.8939 42.6767 14.0566 45.5913 11.2212L45.5251 10.9757C45.0264 10.9757 44.5259 10.9849 44.0273 10.9739C43.4477 10.9591 43.0999 10.6674 43.0944 10.0693C43.0889 9.46755 43.4274 9.16481 44.0144 9.16112C45.3319 9.15374 46.6512 9.15558 47.9686 9.16112C48.6053 9.16297 48.9365 9.51186 48.942 10.1358C48.9567 11.4889 48.9494 12.842 48.9457 14.1951C48.9439 14.7729 48.6586 15.1569 48.0754 15.1716C47.435 15.1901 47.1461 14.7913 47.1461 14.1674C47.1461 13.6505 47.1461 13.1318 47.1461 12.3823C46.7524 12.722 46.5021 12.914 46.2776 13.1337C43.4366 15.8934 40.603 18.6605 37.762 21.4202C36.8383 22.3174 36.5181 22.3063 35.6643 21.3483C34.0101 19.4912 32.3578 17.6323 30.7128 15.7679C30.4938 15.5205 30.3098 15.2399 30.032 14.8707C28.6188 17.0047 27.3326 18.9429 26.052 20.8812C25.0749 22.3599 24.959 22.3839 23.4722 21.3759C21.7978 20.2407 20.1068 19.1257 18.4545 17.9572C17.9061 17.5695 17.494 17.4883 16.9107 17.9147C15.9723 18.6014 14.9529 19.1774 13.9758 19.8106C13.4109 20.1779 12.8258 20.4142 12.3897 19.7072C11.9463 18.9891 12.4688 18.5793 13.0153 18.2286C14.2813 17.42 15.5638 16.6355 16.8076 15.7937C17.4314 15.3728 17.954 15.3802 18.5685 15.8085C20.3055 17.0176 22.0885 18.1584 23.809 19.3915C24.407 19.8198 24.6572 19.6906 25.016 19.1312C26.2746 17.1671 27.5755 15.2288 28.8691 13.2869C29.5646 12.2439 30.0265 12.2162 30.8692 13.1614C32.8067 15.3396 34.7351 17.5234 36.7628 19.8124L36.761 19.8161Z" fill="#2E2D70"/>
</svg>
