<svg width="56" height="56" viewBox="0 0 56 56" fill="none" xmlns="http://www.w3.org/2000/svg">
<path d="M13.1906 13.4953C10.4845 14.8691 8.26578 16.6511 6.45841 18.9358C3.54911 22.6109 2.05399 26.8053 2.03747 31.5008C2.01269 38.5806 2.03251 45.6604 2.02755 52.7385C2.02755 53.1733 2.04573 53.5997 2.50831 53.7822C2.99567 53.9746 3.31287 53.6843 3.60694 53.3193C5.08554 51.4859 6.57406 49.6607 8.06257 47.8356C8.71514 47.0359 9.12486 46.9861 9.94098 47.5934C17.1523 52.9526 26.2882 53.1152 33.7292 48.0463C34.0464 47.8306 34.5453 47.7328 34.9154 47.8041C35.1582 47.8506 35.4837 48.3052 35.4804 48.574C35.4771 48.9058 35.254 49.372 34.9798 49.5396C33.5953 50.3875 32.2274 51.3199 30.7356 51.9272C23.3657 54.9204 16.3213 54.1804 9.65187 49.8366C9.53127 49.7586 9.41397 49.6757 9.2405 49.5562C9.09347 49.7271 8.94808 49.8897 8.80931 50.0589C7.58347 51.5655 6.36094 53.0737 5.13345 54.5786C4.2149 55.7052 3.03697 56.0835 1.85078 55.6421C0.69268 55.2107 0.0533284 54.187 0.0533284 52.7452C0.0533284 45.7069 0.0368077 38.6686 0.0566326 31.6303C0.0830657 22.1015 5.9314 13.784 14.7601 10.6531C15.2854 10.4672 15.7711 10.3776 16.166 10.8605C16.5641 11.3483 16.3576 11.8178 16.0817 12.2907C8.92165 24.5422 15.9958 39.8997 29.9591 42.4034C35.6885 43.4321 40.8678 42.1097 45.5167 38.6271C46.4088 37.9601 46.7723 37.9949 47.4761 38.861C48.9497 40.6712 50.4234 42.4831 51.8937 44.2949C52.1597 44.6234 52.4323 44.9569 52.9196 44.7993C53.4285 44.635 53.483 44.2153 53.483 43.749C53.4747 40.3327 53.478 36.9181 53.4797 33.5018C53.4797 33.316 53.4615 33.1252 53.4946 32.9444C53.5953 32.4101 53.9241 32.0865 54.4709 32.0899C55.0178 32.0915 55.3416 32.4184 55.4423 32.9526C55.4721 33.1136 55.4572 33.2828 55.4572 33.4487C55.4572 36.865 55.4572 40.2797 55.4572 43.6959C55.4572 45.1892 54.8327 46.1914 53.635 46.6311C52.4405 47.0691 51.3089 46.6974 50.3655 45.5459C49.1347 44.0427 47.9122 42.5345 46.6847 41.0296C46.5559 40.872 46.4204 40.7193 46.2899 40.5667C37.2712 47.016 26.5526 45.2888 19.5759 39.8217C13.4715 35.0383 8.39464 25.0267 13.189 13.4969L13.1906 13.4953Z" fill="#2E2D70"/>
<path d="M53.4804 24.1032C53.5614 21.923 53.4854 19.2285 52.6048 16.6468C49.9483 8.86184 44.6848 3.9639 36.5186 2.65811C29.9632 1.6095 24.1694 3.45121 19.337 8.11355C18.7952 8.63619 18.2401 8.68597 17.8089 8.26785C17.3512 7.82485 17.3959 7.25408 17.9526 6.69991C21.6879 2.98331 26.2047 0.957437 31.4203 0.504477C37.0638 0.0150145 42.2414 1.35067 46.7317 4.86318C51.8416 8.86184 54.7938 14.1414 55.3307 20.6554C55.5323 23.1027 55.4315 25.5749 55.4497 28.0372C55.4546 28.671 55.0268 29.0891 54.4684 29.0891C53.9083 29.0891 53.4953 28.671 53.4854 28.0372C53.4688 26.899 53.4804 25.7607 53.4804 24.1015V24.1032Z" fill="#2E2D70"/>
<path d="M45.3953 21.8412C45.881 21.3168 46.3551 20.7826 46.854 20.2716C47.4191 19.6925 47.9609 19.6361 48.4136 20.0725C48.858 20.5022 48.8101 21.0945 48.2649 21.6487C47.1779 22.7521 46.0842 23.8504 44.9856 24.9422C44.3528 25.571 43.8555 25.5694 43.2294 24.9455C42.1324 23.8521 41.0404 22.7537 39.95 21.652C39.4082 21.1045 39.3536 20.5072 39.7898 20.0774C40.2342 19.6377 40.7959 19.6942 41.356 20.2616C41.9325 20.8473 42.4909 21.4512 43.0576 22.0486C43.1204 22.0203 43.1831 21.9921 43.2459 21.9639C43.1815 21.4529 43.1567 20.9336 43.0493 20.4325C42.1936 16.4421 38.8432 13.3544 34.8038 12.8218C30.9925 12.319 27.8767 13.5468 25.4977 16.6047C25.017 17.2236 24.4519 17.3431 23.9613 16.9515C23.4822 16.5682 23.4657 16.0207 23.9134 15.4184C26.6922 11.6719 31.6021 9.89163 36.1073 10.995C40.819 12.1498 44.333 15.9344 45.0814 20.6664C45.1359 21.0132 45.1821 21.3616 45.2317 21.7084C45.2862 21.7532 45.3407 21.798 45.3953 21.8412Z" fill="#2E2D70"/>
<path d="M23.5097 23.2692C23.7129 26.2541 24.9767 28.6798 27.3887 30.4734C31.5586 33.5744 37.8447 33.231 41.2694 28.5786C41.7287 27.9547 42.3218 27.8519 42.8059 28.2551C43.2651 28.635 43.2883 29.2191 42.824 29.7931C39.6058 33.7636 35.4575 35.3597 30.5178 34.1253C25.6095 32.8975 22.6787 29.5725 21.6808 24.5716C21.6081 24.2116 21.5718 23.8433 21.4974 23.3355C21.0216 23.8117 20.6103 24.2265 20.1973 24.6364C20.0073 24.8255 19.8289 25.0329 19.6124 25.1889C19.1697 25.5091 18.7087 25.4908 18.3255 25.1009C17.9422 24.711 17.886 24.205 18.2594 23.8134C19.4869 22.5292 20.7408 21.2715 22.0162 20.0354C22.4309 19.6322 22.948 19.6936 23.3527 20.0918C24.5753 21.2947 25.7862 22.5059 26.979 23.7387C27.3937 24.1685 27.3474 24.7475 26.9509 25.1275C26.566 25.4958 25.9845 25.5041 25.5615 25.091C24.9172 24.4605 24.3043 23.7985 23.6782 23.1497C23.622 23.1895 23.5658 23.231 23.5097 23.2708V23.2692Z" fill="#2E2D70"/>
</svg>
