<svg width="69" height="70" viewBox="0 0 69 70" fill="none" xmlns="http://www.w3.org/2000/svg">
<path d="M62.4502 46.4318C62.4502 48.1852 62.4561 49.8318 62.4502 51.4785C62.4366 54.496 60.706 56.2183 57.6729 56.2397C56.83 56.2455 55.9851 56.2377 55.1422 56.2416C53.7483 56.2494 53.5517 56.4416 53.5517 57.8008C53.5497 61.0708 53.5517 64.3388 53.5497 67.6087C53.5497 68.8883 53.283 69.164 52.0274 69.164C40.8336 69.166 29.6398 69.1679 18.4461 69.164C17.2741 69.164 16.986 68.8475 16.9587 67.6514C16.8964 64.8397 16.9334 62.0203 16.7329 59.2183C16.4993 55.962 15.306 52.9853 13.4274 50.3212C10.6455 46.3735 8.74738 42.0764 7.92196 37.3055C6.21272 27.4122 10.5851 18.7791 19.7815 14.7014C24.9248 12.4198 30.2959 11.7946 35.8461 12.9461C36.3658 13.0548 36.946 13.0063 37.4755 12.9111C42.2976 12.0431 47.0359 12.1053 51.5718 14.2063C56.8183 16.6374 60.009 20.7927 61.2199 26.3559C61.7007 28.5695 61.5995 30.9074 61.7825 33.187C61.8117 33.5598 61.8857 33.9501 62.0356 34.2899C63.2601 37.0705 64.4982 39.8434 65.7519 42.6123C66.7837 44.89 66.114 46.057 63.6261 46.2803C63.2737 46.3114 62.9214 46.3716 62.4522 46.4337L62.4502 46.4318ZM39.465 67.0378C39.465 66.5796 39.465 66.2281 39.465 65.8786C39.465 63.03 39.4514 60.1814 39.4709 57.3329C39.4845 55.3678 40.6565 54.2183 42.6363 54.1911C43.6739 54.1775 44.7135 54.1969 45.7511 54.1853C47.4701 54.1678 48.3149 53.327 48.3227 51.6163C48.3325 49.7056 48.3383 47.7969 48.3188 45.8862C48.311 45.0454 48.5953 44.5366 49.5141 44.4551C50.3649 44.3794 51.2059 44.2143 52.1422 44.0764C50.7756 41.0473 49.4324 38.1443 48.1689 35.2065C47.8769 34.5249 47.7835 33.7327 47.729 32.9812C47.6102 31.3715 47.7445 29.7268 47.4798 28.1462C46.4558 22.0258 43.2067 17.6102 37.2146 15.4937C32.6359 13.8762 28.0299 14.2451 23.4453 15.5383C13.9452 18.2199 8.52545 26.4005 9.83366 36.1327C10.4761 40.9075 12.3216 45.2007 15.1093 49.1211C16.7991 51.4959 18.0625 54.1173 18.4422 57.0028C18.8237 59.9076 18.8607 62.8591 19.0398 65.7912C19.0651 66.197 19.0437 66.6048 19.0437 67.0398H39.465V67.0378ZM51.4025 67.0378C51.42 66.6902 51.4453 66.4359 51.4453 66.1815C51.4492 63.2688 51.4317 60.3562 51.4531 57.4436C51.4687 55.3892 52.6834 54.2125 54.7431 54.1989C55.7496 54.193 56.7541 54.2066 57.7605 54.195C59.4678 54.1756 60.34 53.3115 60.3478 51.6221C60.3575 49.7444 60.377 47.8668 60.338 45.991C60.3186 45.0609 60.595 44.5153 61.6151 44.4454C62.4171 44.3891 63.2095 44.2143 64.0777 44.0823C63.9395 43.7289 63.8383 43.4279 63.7098 43.1405C62.5125 40.455 61.288 37.7812 60.1297 35.0783C59.8766 34.4861 59.7287 33.787 59.7579 33.1482C59.9389 29.086 59.39 25.1753 57.1337 21.7073C53.3745 15.9305 47.7426 14.1344 41.1646 14.5053C41.001 14.515 40.8414 14.5791 40.8239 14.583C42.2411 15.7849 43.8024 16.8626 45.058 18.2238C48.8094 22.2918 49.9872 27.2646 49.8509 32.6608C49.8315 33.3987 50.0086 34.1967 50.3006 34.8802C51.4764 37.6453 52.6679 40.4084 53.9858 43.1075C54.6594 44.4881 53.8846 46.0959 52.1325 46.2299C51.5894 46.2706 51.0462 46.3425 50.433 46.4066C50.433 48.2532 50.4447 50.0299 50.4291 51.8047C50.4077 54.3426 48.6556 56.1309 46.1073 56.2105C45.0697 56.2416 44.0321 56.2105 42.9925 56.2222C41.7953 56.2338 41.5364 56.4766 41.5325 57.628C41.5247 60.5077 41.5286 63.3892 41.5325 66.2689C41.5325 66.5155 41.5831 66.7601 41.6143 67.0359H51.4025V67.0378Z" fill="#2E2D70"/>
<path d="M6.01609 24.9486C6.0414 25.8923 5.30358 26.4496 4.62417 26.0962C3.27897 25.3952 1.9474 24.6515 0.691746 23.8049C0.413361 23.6185 0.298504 22.8748 0.423095 22.4864C0.598302 21.933 1.18622 21.8029 1.72157 22.0981C2.9928 22.8029 4.25818 23.5214 5.49631 24.2806C5.76496 24.4457 5.91096 24.8068 6.01609 24.9486Z" fill="#2E2D70"/>
<path d="M17.605 12.0668C17.459 12.2415 17.2604 12.694 16.9489 12.793C16.6277 12.894 16.0048 12.7716 15.849 12.5309C14.9925 11.2105 14.1982 9.84541 13.4915 8.43957C13.3591 8.17743 13.62 7.49976 13.8984 7.31723C14.1709 7.13859 14.9341 7.19878 15.0762 7.41626C15.9678 8.7852 16.7445 10.226 17.5563 11.6474C17.5855 11.6979 17.5738 11.7736 17.605 12.0668Z" fill="#2E2D70"/>
<path d="M68.7221 19.1268C68.6072 19.2783 68.4554 19.6336 68.1848 19.8006C66.9778 20.5424 65.7416 21.2394 64.5054 21.9346C63.9506 22.2472 63.4036 22.1676 63.0707 21.6161C62.7105 21.0181 62.9208 20.5035 63.5223 20.1559C64.7215 19.4627 65.9052 18.7423 67.1258 18.088C67.9064 17.6685 68.7416 18.152 68.7221 19.1307V19.1268Z" fill="#2E2D70"/>
<path d="M50.818 10.522C49.7882 10.5162 49.3248 9.78416 49.7375 9.00357C50.415 7.72006 51.1314 6.45015 51.9549 5.25791C52.1535 4.97247 52.9633 4.80353 53.2612 4.97635C53.5512 5.14528 53.7809 5.93364 53.6271 6.25403C53.0003 7.5589 52.2352 8.80163 51.4721 10.0366C51.3105 10.2987 50.9426 10.4327 50.816 10.522H50.818Z" fill="#2E2D70"/>
<path d="M34.2839 4.06193C34.2839 4.77068 34.3948 5.50466 34.241 6.1804C34.1534 6.56681 33.6395 7.11633 33.3144 7.11827C32.9679 7.11827 32.343 6.58429 32.3177 6.24448C32.2047 4.77068 32.2417 3.28329 32.2729 1.80172C32.2865 1.15899 32.7323 0.696853 33.3378 0.846369C33.7135 0.939574 34.1632 1.4522 34.243 1.84638C34.389 2.55706 34.2839 3.32018 34.2839 4.06193Z" fill="#2E2D70"/>
<path d="M22.499 26.4985C23.1025 26.4985 23.4452 26.4985 23.7878 26.4985C27.9733 26.4985 32.1588 26.4985 36.3443 26.5004C36.6674 26.5004 37.0704 26.4208 37.2943 26.5781C37.6428 26.8208 38.0983 27.246 38.0827 27.5742C38.0691 27.9121 37.5844 28.2888 37.2262 28.5296C37.0237 28.6655 36.6577 28.5684 36.3676 28.5684C32.1491 28.5684 27.9324 28.5684 23.7138 28.5684C23.3945 28.5684 23.0753 28.5684 22.501 28.5684C23.0558 29.18 23.4724 29.6422 23.8929 30.1024C24.3426 30.5936 24.5139 31.1354 23.9727 31.6364C23.416 32.1529 22.8417 32.0053 22.3511 31.4849C21.3738 30.4461 20.4043 29.4033 19.4388 28.3548C18.9384 27.813 18.9482 27.2519 19.4485 26.714C20.4394 25.646 21.4322 24.5761 22.4387 23.5237C22.9118 23.0285 23.4666 22.9509 23.9805 23.4421C24.473 23.912 24.3738 24.4305 23.9533 24.9062C23.5464 25.3664 23.1259 25.813 22.499 26.4985Z" fill="#2E2D70"/>
<path d="M34.7352 39.5565C34.1181 38.8789 33.7073 38.4303 33.2985 37.9818C32.8352 37.4711 32.7729 36.939 33.2927 36.4458C33.7891 35.9759 34.3128 36.0808 34.7508 36.5371C35.804 37.6361 36.8474 38.7449 37.8675 39.873C38.2997 40.3527 38.2549 40.8866 37.8189 41.3585C36.8085 42.4536 35.7942 43.543 34.7703 44.6245C34.3284 45.0925 33.8008 45.1838 33.3063 44.743C32.7748 44.2692 32.8157 43.7274 33.283 43.2109C33.7093 42.7391 34.1376 42.2711 34.6963 41.6556C34.159 41.6323 33.8202 41.6051 33.4815 41.6051C29.1364 41.6012 24.7913 41.6051 20.4461 41.6012C19.4591 41.6012 18.9413 41.141 19.0951 40.4128C19.2586 39.6361 19.8621 39.5585 20.5201 39.5585C24.801 39.5643 29.0819 39.5604 33.3608 39.5585C33.7093 39.5585 34.0578 39.5585 34.7333 39.5585L34.7352 39.5565Z" fill="#2E2D70"/>
</svg>
