<svg width="21" height="19" viewBox="0 0 21 19" fill="none" xmlns="http://www.w3.org/2000/svg">
<circle cx="9.58826" cy="9.22083" r="9.22034" fill="white"/>
<path d="M11.8923 6.91466C12.8093 6.91466 13.6887 7.27894 14.3372 7.92737C14.9856 8.5758 15.3499 9.45527 15.3499 10.3723V14.4062H13.0448V10.3723C13.0448 10.0666 12.9234 9.77346 12.7072 9.55731C12.4911 9.34117 12.1979 9.21974 11.8923 9.21974C11.5866 9.21974 11.2934 9.34117 11.0773 9.55731C10.8611 9.77346 10.7397 10.0666 10.7397 10.3723V14.4062H8.43463V10.3723C8.43463 9.45527 8.79892 8.5758 9.44735 7.92737C10.0958 7.27894 10.9752 6.91466 11.8923 6.91466Z" fill="#139161"/>
<path d="M6.12955 7.49093H3.82446V14.4062H6.12955V7.49093Z" fill="#139161"/>
<path d="M4.97701 5.76212C5.61354 5.76212 6.12955 5.24611 6.12955 4.60957C6.12955 3.97304 5.61354 3.45703 4.97701 3.45703C4.34047 3.45703 3.82446 3.97304 3.82446 4.60957C3.82446 5.24611 4.34047 5.76212 4.97701 5.76212Z" fill="#139161"/>
</svg>
