<svg width="67" height="67" viewBox="0 0 68 68" fill="none" xmlns="http://www.w3.org/2000/svg">
<circle cx="33.7188" cy="33.7188" r="33.7188" transform="matrix(1 0 0 -1 0.148438 67.6445)" fill="#54469D"/>
<path d="M40.611 19.439H44.3575C45.3512 19.439 46.3041 19.8206 47.0067 20.4998C47.7093 21.179 48.1041 22.1002 48.1041 23.0607V48.4122C48.1041 49.3727 47.7093 50.2939 47.0067 50.9731C46.3041 51.6523 45.3512 52.0338 44.3575 52.0338H21.8784C20.8847 52.0338 19.9318 51.6523 19.2292 50.9731C18.5266 50.2939 18.1318 49.3727 18.1318 48.4122V23.0607C18.1318 22.1002 18.5266 21.179 19.2292 20.4998C19.9318 19.8206 20.8847 19.439 21.8784 19.439H25.6249M27.4982 15.8174H38.7377C39.7723 15.8174 40.611 16.6281 40.611 17.6282V21.2498C40.611 22.2499 39.7723 23.0607 38.7377 23.0607H27.4982C26.4636 23.0607 25.6249 22.2499 25.6249 21.2498V17.6282C25.6249 16.6281 26.4636 15.8174 27.4982 15.8174Z" stroke="white" stroke-width="2" stroke-linecap="round" stroke-linejoin="round"/>
</svg>
