<svg width="68" height="920" viewBox="0 0 68 920" fill="none" xmlns="http://www.w3.org/2000/svg">
<path d="M30.1852 918.034C31.9426 919.791 34.7918 919.791 36.5492 918.034L65.187 889.396C66.9444 887.638 66.9444 884.789 65.187 883.032C63.4297 881.274 60.5804 881.274 58.8231 883.032L33.3672 908.488L7.91138 883.032C6.15402 881.274 3.30478 881.274 1.54742 883.032C-0.209938 884.789 -0.209937 887.638 1.54742 889.396L30.1852 918.034ZM33.3672 0L28.8672 1.96701e-07L28.8672 914.852L33.3672 914.852L37.8672 914.852L37.8672 -1.96701e-07L33.3672 0Z" fill="url(#paint0_linear_2305_38)"/>
<circle cx="33.8672" cy="199.473" r="33.7188" fill="#54469D"/>
<path d="M32.8677 184.736H20.6291C19.7017 184.736 18.8123 185.105 18.1565 185.76C17.5007 186.416 17.1323 187.306 17.1323 188.233V212.71C17.1323 213.638 17.5007 214.527 18.1565 215.183C18.8123 215.839 19.7017 216.207 20.6291 216.207H45.1064C46.0338 216.207 46.9232 215.839 47.579 215.183C48.2348 214.527 48.6032 213.638 48.6032 212.71V200.472M45.9806 182.114C46.6761 181.418 47.6195 181.027 48.6032 181.027C49.5868 181.027 50.5302 181.418 51.2257 182.114C51.9213 182.809 52.312 183.753 52.312 184.736C52.312 185.72 51.9213 186.663 51.2257 187.359L34.6161 203.968L27.6226 205.717L29.371 198.723L45.9806 182.114Z" stroke="white" stroke-width="2" stroke-linecap="round" stroke-linejoin="round"/>
<circle cx="33.8672" cy="583.035" r="33.7188" fill="#54469D"/>
<path d="M33.1179 576.063C33.1179 574.076 32.3284 572.17 30.9232 570.765C29.518 569.36 27.6121 568.57 25.6248 568.57H14.3853V596.669H27.4981C28.9886 596.669 30.418 597.261 31.4719 598.315C32.5258 599.369 33.1179 600.798 33.1179 602.289M33.1179 576.063V602.289M33.1179 576.063C33.1179 574.076 33.9073 572.17 35.3126 570.765C36.7178 569.36 38.6237 568.57 40.6109 568.57H51.8505V596.669H38.7377C37.2472 596.669 35.8178 597.261 34.7639 598.315C33.71 599.369 33.1179 600.798 33.1179 602.289" stroke="white" stroke-width="2" stroke-linecap="round" stroke-linejoin="round"/>
<circle cx="33.8672" cy="487.145" r="33.7188" fill="#54469D"/>
<path d="M25.5449 491.67L23.1272 509.873L33.1179 503.879L43.1086 509.873L40.6909 491.65M47.1049 479.901C47.1049 487.626 40.8427 493.888 33.1179 493.888C25.3931 493.888 19.1309 487.626 19.1309 479.901C19.1309 472.176 25.3931 465.914 33.1179 465.914C40.8427 465.914 47.1049 472.176 47.1049 479.901Z" stroke="white" stroke-width="2" stroke-linecap="round" stroke-linejoin="round"/>
<circle cx="33.8672" cy="295.363" r="33.7188" fill="#54469D"/>
<path d="M55.8469 294.159V296.113C55.8443 300.691 54.3618 305.145 51.6206 308.812C48.8794 312.479 45.0264 315.161 40.6361 316.46C36.2458 317.758 31.5536 317.602 27.2591 316.015C22.9647 314.429 19.2981 311.496 16.8064 307.656C14.3146 303.815 13.131 299.272 13.4323 294.704C13.7335 290.135 15.5033 285.787 18.4779 282.307C21.4524 278.826 25.4722 276.401 29.9378 275.392C34.4034 274.383 39.0755 274.845 43.2573 276.708M55.8469 279.128L34.6166 300.38L28.2475 294.011" stroke="white" stroke-width="2" stroke-linecap="round" stroke-linejoin="round"/>
<circle cx="33.8672" cy="391.254" r="33.7188" fill="#54469D"/>
<path d="M16.1338 406.708C16.1338 405.342 16.693 404.032 17.6883 403.066C18.6837 402.1 20.0337 401.557 21.4414 401.557H50.1023M16.1338 406.708C16.1338 408.075 16.693 409.385 17.6883 410.351C18.6837 411.317 20.0337 411.86 21.4414 411.86H50.1023V370.648H21.4414C20.0337 370.648 18.6837 371.191 17.6883 372.157C16.693 373.123 16.1338 374.433 16.1338 375.799V406.708Z" stroke="white" stroke-width="2" stroke-linecap="round" stroke-linejoin="round"/>
<circle cx="33.7188" cy="33.7188" r="33.7188" transform="matrix(1 0 0 -1 0.148438 712.645)" fill="#54469D"/>
<path d="M40.611 664.439H44.3575C45.3512 664.439 46.3041 664.821 47.0067 665.5C47.7093 666.179 48.1041 667.1 48.1041 668.061V693.412C48.1041 694.373 47.7093 695.294 47.0067 695.973C46.3041 696.652 45.3512 697.034 44.3575 697.034H21.8784C20.8847 697.034 19.9318 696.652 19.2292 695.973C18.5266 695.294 18.1318 694.373 18.1318 693.412V668.061C18.1318 667.1 18.5266 666.179 19.2292 665.5C19.9318 664.821 20.8847 664.439 21.8784 664.439H25.6249M27.4982 660.817H38.7377C39.7723 660.817 40.611 661.628 40.611 662.628V666.25C40.611 667.25 39.7723 668.061 38.7377 668.061H27.4982C26.4636 668.061 25.6249 667.25 25.6249 666.25V662.628C25.6249 661.628 26.4636 660.817 27.4982 660.817Z" stroke="white" stroke-width="2" stroke-linecap="round" stroke-linejoin="round"/>
<circle cx="33.8672" cy="774.816" r="33.7188" fill="#54469D"/>
<path d="M51.7201 774.049C50.9199 774.506 50.1916 774.889 49.5077 775.337C49.354 775.438 49.2945 775.764 49.2931 775.987C49.2779 778.17 49.264 780.354 49.2889 782.537C49.3139 784.698 48.3807 786.267 46.4687 787.326C44.079 788.65 41.7212 790.032 39.337 791.367C35.6556 793.428 31.97 793.401 28.301 791.326C25.9224 789.981 23.5591 788.611 21.1708 787.282C19.303 786.244 18.4128 784.68 18.4156 782.588C18.4183 780.45 18.3906 778.312 18.4322 776.176C18.4433 775.588 18.2273 775.288 17.7302 775.015C16.1394 774.143 14.568 773.235 13.0035 772.319C11.1039 771.204 11.0873 769.04 12.9855 767.948C19.0954 764.434 25.2122 760.93 31.3387 757.443C32.9848 756.507 34.7044 756.494 36.3492 757.429C42.4799 760.91 48.5967 764.413 54.7065 767.927C56.5715 768.999 56.6158 770.998 54.8616 772.255C54.6941 772.375 54.5432 772.643 54.5432 772.844C54.5238 776.709 54.5238 780.575 54.5432 784.441C54.5432 784.676 54.6872 784.958 54.8533 785.137C55.8294 786.19 55.8585 787.603 54.8907 788.567C53.9423 789.513 52.4401 789.524 51.4723 788.592C50.499 787.654 50.5032 786.194 51.4557 785.158C51.6232 784.975 51.7811 784.699 51.7824 784.466C51.8018 781.123 51.7949 777.78 51.7921 774.438C51.7921 774.35 51.7617 774.262 51.7215 774.049H51.7201ZM53.0562 770.145C52.8818 770.018 52.8139 769.958 52.735 769.913C46.8979 766.573 41.058 763.24 35.2264 759.892C34.2974 759.358 33.4265 759.351 32.4947 759.888C27.84 762.567 23.1742 765.227 18.5139 767.894C17.2457 768.62 15.9802 769.35 14.6455 770.115C14.9169 770.282 15.1066 770.406 15.3032 770.518C20.9589 773.757 26.623 776.982 32.2635 780.247C33.3601 780.882 34.3361 780.897 35.4299 780.262C39.5973 777.842 43.7882 775.461 47.9695 773.065C49.6392 772.109 51.3076 771.149 53.0548 770.145H53.0562ZM21.1583 776.998C21.1583 779.094 21.1292 781.045 21.1721 782.995C21.1901 783.816 21.6512 784.438 22.3919 784.856C24.9325 786.286 27.4509 787.754 30.0081 789.157C32.5626 790.558 35.1627 790.562 37.7171 789.151C40.2093 787.776 42.6599 786.327 45.1534 784.953C46.1599 784.399 46.5822 783.602 46.5684 782.504C46.5517 781.094 46.5642 779.685 46.5642 778.276C46.5642 777.9 46.5642 777.524 46.5642 777.011C46.1918 777.214 45.9564 777.338 45.7266 777.471C42.6792 779.216 39.6333 780.965 36.5846 782.707C34.7723 783.743 32.953 783.744 31.1393 782.713C29.8226 781.963 28.5129 781.202 27.1976 780.449C25.2288 779.322 23.26 778.198 21.1583 776.997V776.998Z" fill="white"/>
<defs>
<linearGradient id="paint0_linear_2305_38" x1="27.8672" y1="-2.83941" x2="27.8672" y2="917.691" gradientUnits="userSpaceOnUse">
<stop stop-color="#55499D" stop-opacity="0.16"/>
<stop offset="0.129808" stop-color="#55499D"/>
<stop offset="1" stop-color="#55499D"/>
</linearGradient>
</defs>
</svg>
