<svg width="67" height="67" viewBox="0 0 68 69" fill="none" xmlns="http://www.w3.org/2000/svg">
<circle cx="33.8672" cy="34.4727" r="33.7188" fill="#54469D"/>
<path d="M32.8677 19.7362H20.6291C19.7017 19.7362 18.8123 20.1046 18.1565 20.7604C17.5007 21.4162 17.1323 22.3056 17.1323 23.233V47.7103C17.1323 48.6377 17.5007 49.5271 18.1565 50.1829C18.8123 50.8386 19.7017 51.2071 20.6291 51.2071H45.1064C46.0338 51.2071 46.9232 50.8386 47.579 50.1829C48.2348 49.5271 48.6032 48.6377 48.6032 47.7103V35.4716M45.9806 17.1136C46.6761 16.4181 47.6195 16.0273 48.6032 16.0273C49.5868 16.0273 50.5302 16.4181 51.2257 17.1136C51.9213 17.8092 52.312 18.7526 52.312 19.7362C52.312 20.7199 51.9213 21.6632 51.2257 22.3588L34.6161 38.9684L27.6226 40.7168L29.371 33.7233L45.9806 17.1136Z" stroke="white" stroke-width="2" stroke-linecap="round" stroke-linejoin="round"/>
</svg>
