<svg width="67" height="67" viewBox="0 0 68 68" fill="none" xmlns="http://www.w3.org/2000/svg">
<circle cx="33.8672" cy="33.8164" r="33.7188" fill="#54469D"/>
<path d="M51.7201 33.0487C50.9199 33.5057 50.1916 33.8891 49.5077 34.3367C49.354 34.4376 49.2945 34.7637 49.2931 34.9875C49.2779 37.1705 49.264 39.3535 49.2889 41.5365C49.3139 43.6977 48.3807 45.2668 46.4687 46.3255C44.079 47.6504 41.7212 49.0325 39.337 50.3669C35.6556 52.4285 31.97 52.4012 28.301 50.3259C25.9224 48.9806 23.5591 47.6108 21.1708 46.2819C19.303 45.2436 18.4128 43.68 18.4156 41.5884C18.4183 39.4504 18.3906 37.3124 18.4322 35.1758C18.4433 34.5877 18.2273 34.2875 17.7302 34.0147C16.1394 33.1428 14.568 32.2355 13.0035 31.3186C11.1039 30.2039 11.0873 28.04 12.9855 26.9485C19.0954 23.4338 25.2122 19.9301 31.3387 16.4427C32.9848 15.5067 34.7044 15.4944 36.3492 16.4291C42.4799 19.9096 48.5967 23.4134 54.7065 26.9267C56.5715 27.9991 56.6158 29.9979 54.8616 31.2545C54.6941 31.3746 54.5432 31.6434 54.5432 31.8439C54.5238 35.7092 54.5238 39.5745 54.5432 43.4412C54.5432 43.6759 54.6872 43.9583 54.8533 44.1371C55.8294 45.1904 55.8585 46.6025 54.8907 47.5671C53.9423 48.5127 52.4401 48.5236 51.4723 47.5917C50.499 46.6544 50.5032 45.1945 51.4557 44.1575C51.6232 43.9747 51.7811 43.6991 51.7824 43.4658C51.8018 40.123 51.7949 36.7803 51.7921 33.4375C51.7921 33.3502 51.7617 33.2615 51.7215 33.0487H51.7201ZM53.0562 29.1452C52.8818 29.0183 52.8139 28.9582 52.735 28.9132C46.8979 25.5732 41.058 22.24 35.2264 18.8918C34.2974 18.3583 33.4265 18.3515 32.4947 18.8877C27.84 21.5673 23.1742 24.2265 18.5139 26.8939C17.2457 27.6198 15.9802 28.3497 14.6455 29.1151C14.9169 29.2816 15.1066 29.4058 15.3032 29.5176C20.9589 32.7567 26.623 35.9821 32.2635 39.2471C33.3601 39.8815 34.3361 39.8965 35.4299 39.2621C39.5973 36.8417 43.7882 34.4608 47.9695 32.065C49.6392 31.1085 51.3076 30.1493 53.0548 29.1452H53.0562ZM21.1583 35.9985C21.1583 38.0942 21.1292 40.0453 21.1721 41.995C21.1901 42.8163 21.6512 43.4385 22.3919 43.856C24.9325 45.2859 27.4509 46.754 30.0081 48.1566C32.5626 49.5578 35.1627 49.5619 37.7171 48.1511C40.2093 46.7758 42.6599 45.3268 45.1534 43.9529C46.1599 43.3989 46.5822 42.6021 46.5684 41.5038C46.5517 40.0944 46.5642 38.685 46.5642 37.2756C46.5642 36.9003 46.5642 36.5238 46.5642 36.0108C46.1918 36.2141 45.9564 36.3382 45.7266 36.4706C42.6792 38.2156 39.6333 39.9648 36.5846 41.7071C34.7723 42.7427 32.953 42.744 31.1393 41.7125C29.8226 40.9635 28.5129 40.2022 27.1976 39.449C25.2288 38.322 23.26 37.1978 21.1583 35.9971V35.9985Z" fill="white"/>
</svg>
