<svg width="67" height="67" viewBox="0 0 68 68" fill="none" xmlns="http://www.w3.org/2000/svg">
<circle cx="33.8672" cy="34.0352" r="33.7188" fill="#54469D"/>
<path d="M33.1179 27.0631C33.1179 25.0758 32.3284 23.17 30.9232 21.7647C29.518 20.3595 27.6121 19.5701 25.6248 19.5701H14.3853V47.669H27.4981C28.9886 47.669 30.418 48.2611 31.4719 49.315C32.5258 50.3689 33.1179 51.7984 33.1179 53.2888M33.1179 27.0631V53.2888M33.1179 27.0631C33.1179 25.0758 33.9073 23.17 35.3126 21.7647C36.7178 20.3595 38.6237 19.5701 40.6109 19.5701H51.8505V47.669H38.7377C37.2472 47.669 35.8178 48.2611 34.7639 49.315C33.71 50.3689 33.1179 51.7984 33.1179 53.2888" stroke="white" stroke-width="2" stroke-linecap="round" stroke-linejoin="round"/>
</svg>
