<svg width="67" height="920" viewBox="0 0 67 920" fill="none" xmlns="http://www.w3.org/2000/svg">
<path d="M30.1852 918.034C31.9426 919.791 34.7918 919.791 36.5492 918.034L65.187 889.396C66.9444 887.638 66.9444 884.789 65.187 883.032C63.4297 881.274 60.5804 881.274 58.8231 883.032L33.3672 908.488L7.91138 883.032C6.15402 881.274 3.30478 881.274 1.54742 883.032C-0.209938 884.789 -0.209937 887.638 1.54742 889.396L30.1852 918.034ZM33.3672 0L28.8672 1.96701e-07L28.8672 914.852L33.3672 914.852L37.8672 914.852L37.8672 -1.96701e-07L33.3672 0Z" fill="url(#paint0_linear_553_442)"/>
<defs>
<linearGradient id="paint0_linear_553_442" x1="27.8672" y1="-2.83941" x2="27.8672" y2="917.691" gradientUnits="userSpaceOnUse">
<stop stop-color="#55499D" stop-opacity="0.16"/>
<stop offset="0.129808" stop-color="#55499D"/>
<stop offset="1" stop-color="#55499D"/>
</linearGradient>
</defs>
</svg>
