<svg width="67" height="67" viewBox="0 0 68 69" fill="none" xmlns="http://www.w3.org/2000/svg">
<circle cx="33.8672" cy="34.3633" r="33.7188" fill="#54469D"/>
<path d="M55.8469 33.1594V35.1126C55.8443 39.6907 54.3618 44.1454 51.6206 47.8122C48.8794 51.479 45.0264 54.1615 40.6361 55.4595C36.2458 56.7576 31.5536 56.6017 27.2591 55.0151C22.9647 53.4286 19.2981 50.4963 16.8064 46.6557C14.3146 42.815 13.131 38.2718 13.4323 33.7036C13.7335 29.1353 15.5033 24.7869 18.4779 21.3067C21.4524 17.8265 25.4722 15.401 29.9378 14.3921C34.4034 13.3832 39.0755 13.8448 43.2573 15.7081M55.8469 18.1283L34.6166 39.3799L28.2475 33.0108" stroke="white" stroke-width="2" stroke-linecap="round" stroke-linejoin="round"/>
</svg>
