<svg width="87" height="86" viewBox="0 0 87 86" fill="none" xmlns="http://www.w3.org/2000/svg">
<path d="M52.5534 70.1764C46.2746 70.2816 39.9909 70.2082 33.7072 70.1911C33.1077 70.1886 32.4641 70.1592 31.9185 69.9439C30.8565 69.5255 30.3133 68.3412 30.5286 67.2278C30.7635 66.0068 31.708 65.2262 33.0685 65.2213C37.8425 65.2042 42.614 65.2238 47.3879 65.2042C48.1147 65.2018 48.8561 65.1357 49.5681 64.9913C53.3731 64.2254 55.9791 60.8854 55.7075 57.171C55.4212 53.2241 52.4188 50.2682 48.4793 50.048C46.6294 49.9452 45.6017 49.0276 45.5968 47.2707C45.5723 38.7432 45.587 30.2132 45.5919 21.6857C45.5919 21.671 45.5943 21.6563 45.5992 21.6392C45.5943 21.6416 45.5894 21.6416 45.5845 21.6441C44.7966 20.4402 44.0063 19.2363 43.0985 17.8489C42.2787 19.1115 41.5275 20.2689 40.6369 21.6416C40.6295 21.6514 40.6222 21.6636 40.6148 21.6759V22.7525C40.6148 25.6423 40.6148 28.5322 40.6124 31.422C40.6124 36.6486 40.6124 41.8777 40.6173 47.1043C40.6222 51.7779 43.4068 54.7558 48.0535 55.096C49.6831 55.2134 50.7451 56.2729 50.6766 57.7117C50.6081 59.1163 49.5339 60.073 47.9458 60.0779C43.0128 60.0901 38.0774 60.051 33.1444 60.095C28.7399 60.1342 25.4488 63.4645 25.4708 67.7637C25.4904 71.9651 28.7424 75.2244 33.0367 75.2488C39.477 75.2831 45.9222 75.2586 52.365 75.2586C54.878 75.2586 55.7368 76.1151 55.7368 78.6329C55.7368 79.668 55.7368 80.7055 55.7295 81.743H55.7319V85.499H60.6894C60.6894 85.499 60.846 80.7397 60.753 78.354C60.5793 73.903 57.5329 70.0932 52.5534 70.1764Z" fill="#54469D"/>
<path d="M55.6209 85.5147H0.0610352C13.546 64.0601 26.9527 42.7302 40.3594 21.3979C40.4475 21.4273 40.5332 21.4567 40.6213 21.4836C40.6213 21.9143 40.6213 22.3425 40.6213 22.7731C40.6213 30.8896 40.6139 39.0085 40.6237 47.1249C40.6286 51.7985 43.4132 54.7765 48.0624 55.1141C49.692 55.234 50.7515 56.2911 50.683 57.7299C50.6145 59.1344 49.5403 60.0912 47.9547 60.0961C43.0217 60.1083 38.0863 60.0692 33.1533 60.1132C28.7488 60.1524 25.4577 63.4826 25.4797 67.7819C25.5017 71.9832 28.7537 75.245 33.0456 75.267C39.4883 75.3013 45.9311 75.2768 52.3739 75.2768C54.8868 75.2768 55.7457 76.1332 55.7482 78.6511C55.7482 80.8117 55.7384 82.9748 55.7286 85.1355C55.7286 85.2113 55.687 85.2896 55.6234 85.5123L55.6209 85.5147Z" fill="#B3A9EB"/>
<path d="M86.1483 85.5018H60.737C60.737 83.0867 60.622 80.723 60.7615 78.3764C61.0282 73.9279 57.5413 70.1156 52.5643 70.1988C46.283 70.3015 39.9993 70.2306 33.718 70.2135C33.1185 70.2135 32.4726 70.1816 31.9269 69.9663C30.8649 69.5479 30.3217 68.3636 30.537 67.2502C30.7744 66.0292 31.7165 65.2486 33.0769 65.2438C37.8509 65.2266 42.6224 65.2437 47.3963 65.2266C48.1231 65.2242 48.8645 65.1581 49.5766 65.0137C53.3815 64.2454 55.9875 60.9078 55.7159 57.1934C55.4272 53.2465 52.4272 50.2881 48.4877 50.0704C46.6378 49.9676 45.6101 49.05 45.6052 47.2931C45.5807 38.7656 45.5954 30.2356 45.6003 21.7081C45.6003 21.6371 45.6492 21.5661 45.7618 21.2529C59.2468 42.7076 72.6462 64.0252 86.1459 85.5018H86.1483Z" fill="#B3A9EB"/>
<path d="M69.0822 15.3248H45.6236V21.1975C45.5379 21.2268 45.4523 21.2586 45.3642 21.288C44.6497 20.1967 43.9352 19.1053 43.1106 17.8476C42.3251 19.0564 41.6082 20.16 40.7371 21.5009V0.217529H69.2682C66.7112 2.7085 64.2545 5.09915 61.6876 7.59746C64.345 10.201 66.8042 12.6088 69.2633 15.0165C69.2021 15.1193 69.141 15.2221 69.0822 15.3273V15.3248Z" fill="#54469D"/>
</svg>
