<svg width="115" height="102" viewBox="0 0 115 102" fill="none" xmlns="http://www.w3.org/2000/svg">
<path d="M74.2404 99.428C68.9994 100.718 63.5286 101.399 57.8899 101.399C52.2512 101.399 46.312 100.657 40.8677 99.2601V98.6503C40.8765 96.9534 41.1505 95.4155 41.6631 94.0721C43.1567 90.1303 46.7008 87.8413 51.6502 87.8324C52.8875 87.8236 54.1248 87.8324 55.3622 87.8324C47.6907 85.6582 43.4396 79.7544 44.3764 72.4276C45.1807 66.1525 51.058 61.0441 57.5275 60.9999C64.0324 60.9469 70.0246 66.0995 70.8289 72.4453C71.748 79.6925 67.2583 86.1002 59.8519 87.8413C61.4693 87.8413 63.0867 87.8059 64.6952 87.8413C68.7254 87.9473 72.4374 90.528 73.6924 94.1782C73.9311 94.8852 74.0813 95.6276 74.1255 96.4054C74.1785 97.4129 74.2139 98.4205 74.2404 99.428Z" fill="#B3A9EB"/>
<path d="M111.329 75.671C103.561 85.3929 93.1935 92.9495 81.2886 97.289C81.3946 94.4255 82.7115 91.8978 84.7354 90.1832C85.8579 89.2287 87.2013 88.5305 88.6772 88.1593C89.4108 87.9648 90.1797 87.8588 90.9752 87.8411C92.5395 87.8057 94.095 87.8323 95.8891 87.8323C94.5016 87.2931 93.2377 86.7098 92.1153 86.0911C85.9197 82.6531 83.5777 77.854 84.8857 71.5701C86.1761 65.3569 92.1683 60.6816 98.4168 61.0086C103.587 61.2737 107.882 64.2699 109.977 68.7154C110.666 70.1649 111.126 71.7734 111.303 73.488C111.382 74.2304 111.391 74.964 111.329 75.671Z" fill="#B3A9EB"/>
<path d="M33.8248 97.0429C24.6243 93.5872 16.3695 88.196 9.55534 81.3818C7.53142 79.3578 5.63122 77.2102 3.88128 74.9388C3.83709 73.8429 3.95198 72.7204 4.22596 71.5626C4.49994 70.4048 4.91534 69.3001 5.45446 68.2837C7.89378 63.6348 12.7989 60.6564 17.9339 61.0188C24.7746 61.5049 30.0598 66.5956 30.6342 73.507C30.9878 77.7935 29.008 83.2113 23.7582 86.1897C22.5385 86.8879 21.1421 87.4536 19.5512 87.8424C21.1686 87.8424 22.786 87.8071 24.4034 87.8513C25.5258 87.8778 26.6306 88.1076 27.6646 88.4965C28.4247 88.7793 29.1494 89.1593 29.8123 89.6101C32.0748 91.1656 33.6569 93.6049 33.7983 96.4419C33.8071 96.6452 33.816 96.8396 33.8248 97.0429Z" fill="#B3A9EB"/>
<path d="M74.3415 54.0788H41.1367C41.0483 53.9639 40.9335 53.8755 40.9335 53.796C40.9335 48.0777 40.739 42.3506 40.9865 36.6412C41.2163 31.4797 45.3879 27.697 50.5493 27.4496C51.822 27.3877 53.1124 27.4407 54.4381 27.264C50.9647 26.0443 48.11 24.1264 46.1921 20.9624C44.2389 17.7453 43.7528 14.2631 44.6808 10.6837C46.2717 4.54118 51.875 0.466809 58.1501 0.687762C64.1688 0.899877 69.3833 5.31009 70.6737 11.2581C72.1497 18.0635 68.9679 23.1896 60.3331 27.4054C61.7826 27.4054 62.7901 27.3965 63.7976 27.4054C70.055 27.4761 74.2708 31.63 74.3327 37.8609C74.3857 43.1991 74.3415 48.5373 74.3415 54.07V54.0788Z" fill="#54469D"/>
<path d="M20.5059 27.4129C21.5665 27.4129 22.6359 27.3952 23.6965 27.4129C29.7683 27.5278 33.9134 31.7082 33.9399 37.7712C33.9575 43.1536 33.9399 48.5448 33.9399 54.0333H0.567162C0.567162 50.1357 0.540648 46.2646 0.576 42.4024C0.602515 40.0868 0.487619 37.7358 0.85882 35.4733C1.59238 30.957 5.38393 27.7311 9.95324 27.466C11.385 27.3776 12.8168 27.4571 14.2927 27.2804C10.7487 26.1668 7.8586 24.2312 5.94073 21.0672C4.01403 17.8943 3.36001 14.5093 4.3322 10.8326C5.98492 4.55757 11.5618 0.38598 17.9782 0.695314C24.4566 1.00465 29.4943 5.78607 30.5991 12.6886C31.5536 18.6455 27.4792 24.4875 20.4971 27.4129H20.5059Z" fill="#B3A9EB"/>
<path d="M100.855 27.1751C103.223 27.4314 105.548 27.3607 107.66 27.9882C111.849 29.2255 114.324 32.3277 114.536 36.6495C114.81 42.4031 114.607 48.1744 114.607 54.0429H81.2605C81.2605 52.7437 81.2605 51.4622 81.2605 50.1895C81.2605 45.9296 81.2251 41.6607 81.2693 37.4008C81.3223 31.9035 85.4144 27.7054 90.9205 27.4491C92.1755 27.396 93.4394 27.4491 94.6944 27.3165C86.4042 23.357 83.2579 18.0188 84.999 10.7362C86.4573 4.69093 92.2462 0.413281 98.5832 0.6961C105.088 0.987758 110.223 5.83988 111.23 12.6452C112.15 18.8761 108.084 24.6032 100.855 27.1751Z" fill="#B3A9EB"/>
</svg>
