<svg width="80" height="70" viewBox="0 0 80 70" fill="none" xmlns="http://www.w3.org/2000/svg">
<path d="M79.7615 37.3359C79.7615 39.0341 79.7615 40.4056 79.7615 41.7793C79.7615 48.0797 79.766 54.3824 79.7615 60.6828C79.757 65.9495 76.5285 69.1646 71.2439 69.1669C50.6624 69.1669 30.0809 69.1669 9.49944 69.1669C4.25955 69.1669 1.01985 65.9137 1.01761 60.647C1.01314 53.3398 1.01761 46.0303 1.01761 38.7231C1.01761 38.3629 1.01761 38.0049 1.01761 37.3382C3.66888 40.032 6.68261 41.5422 10.0319 42.4505C12.1865 43.0345 14.3165 43.699 16.4621 44.3187C22.5388 46.0728 28.6356 47.7531 34.6832 49.5944C38.923 50.8854 43.0375 50.5453 47.2034 49.308C55.4749 46.8492 63.7755 44.4821 72.0538 42.0478C74.9221 41.2043 77.4212 39.6896 79.7592 37.3404L79.7615 37.3359Z" fill="#A29ECE"/>
<path d="M25.8442 13.4391C25.8442 11.0831 25.833 8.92186 25.8464 6.76057C25.8688 3.21435 28.3657 0.69956 31.894 0.690611C37.5613 0.677187 43.2285 0.674949 48.8957 0.690611C52.4263 0.69956 54.9165 3.21211 54.9411 6.7628C54.9567 8.92409 54.9433 11.0831 54.9433 13.3809C55.3885 13.401 55.7801 13.4346 56.1716 13.4368C61.3175 13.4413 66.4612 13.4324 71.6072 13.4413C76.3705 13.4503 79.7556 16.7392 79.74 21.4869C79.7332 23.7869 79.7981 26.1719 79.2321 28.3645C77.9478 33.3426 74.4307 36.2154 69.5488 37.6026C61.3914 39.9227 53.2452 42.2854 45.1168 44.7062C41.7809 45.6996 38.5569 45.572 35.2411 44.5742C26.907 42.0639 18.5213 39.7213 10.1827 37.22C4.74814 35.5889 1.30485 31.1008 1.06769 25.3955C0.967004 22.9971 0.638112 20.5315 1.66954 18.2226C3.02985 15.182 5.39921 13.5062 8.73512 13.4615C13.9907 13.3899 19.2485 13.4413 24.5063 13.4391C24.9067 13.4391 25.3072 13.4391 25.8442 13.4391ZM30.8179 13.372H49.9719C49.9719 11.0831 50.0211 8.85697 49.9204 6.63527C49.9048 6.29072 49.2179 5.69558 48.8353 5.69335C43.2106 5.63294 37.5859 5.63294 31.9611 5.69335C31.5763 5.69782 30.885 6.28848 30.8693 6.62856C30.7709 8.85026 30.8179 11.0764 30.8179 13.372Z" fill="#54469D"/>
</svg>
