<svg width="69" height="87" viewBox="0 0 69 87" fill="none" xmlns="http://www.w3.org/2000/svg">
<path d="M65.7142 73.2793C66.9245 73.2793 67.9805 74.1906 68.0697 75.3985C68.1203 76.0977 67.8575 76.7366 67.4067 77.1898C66.992 77.6045 66.4182 77.8601 65.7865 77.8601H11.1258C9.91556 77.8601 8.85957 76.9487 8.77036 75.7409C8.71973 75.0417 8.98252 74.4028 9.43337 73.9495C9.84805 73.5349 10.4219 73.2793 11.0535 73.2793H65.7118H65.7142Z" fill="white"/>
<path d="M68.3156 66.956C68.3156 67.918 67.5344 68.6991 66.5725 68.6991H11.0559C9.15852 68.6991 7.43952 69.4682 6.19789 70.7123C4.92009 71.9852 4.14377 73.7621 4.18717 75.7198C4.26673 79.4784 7.4347 82.4415 11.1958 82.4415H66.5749C67.5369 82.4415 68.318 83.2226 68.318 84.1846C68.318 85.6118 67.1487 86.7811 65.7214 86.7811H11.2729C5.38541 86.7811 0.568359 81.9641 0.568359 76.0766V11.6564C0.568359 5.76895 5.38541 0.951904 11.2729 0.951904H65.719C67.1463 0.951904 68.3156 2.12121 68.3156 3.54848V66.956Z" fill="#54469D"/>
<path d="M68.0673 75.3985C68.1179 76.0977 67.8551 76.7366 67.4043 77.1898C66.9896 77.6045 66.4158 77.8601 65.7841 77.8601H11.1258C9.91556 77.8601 8.85957 76.9487 8.77036 75.7409C8.71973 75.0417 8.98252 74.4028 9.43337 73.9495C9.84805 73.5349 10.4219 73.2793 11.0535 73.2793H65.7118C66.9221 73.2793 67.9781 74.1906 68.0673 75.3985Z" fill="white"/>
<path d="M68.0673 75.3985C68.1179 76.0977 67.8551 76.7366 67.4043 77.1898C66.9896 77.6045 66.4158 77.8601 65.7841 77.8601H11.1258C9.91556 77.8601 8.85957 76.9487 8.77036 75.7409C8.71973 75.0417 8.98252 74.4028 9.43337 73.9495C9.84805 73.5349 10.4219 73.2793 11.0535 73.2793H65.7118C66.9221 73.2793 67.9781 74.1906 68.0673 75.3985Z" fill="#A29ECE"/>
</svg>
